M48
; DRILL file {KiCad (6.0.9)} date Mon May 15 12:18:22 2023
; FORMAT={-:-/ absolute / metric / decimal}
; #@! TF.CreationDate,2023-05-15T12:18:22+03:00
; #@! TF.GenerationSoftware,Kicad,Pcbnew,(6.0.9)
; #@! TF.FileFunction,Plated,1,2,PTH
FMAT,2
METRIC
; #@! TA.AperFunction,Plated,PTH,ViaDrill
T1C0.300
; #@! TA.AperFunction,Plated,PTH,ViaDrill
T2C0.400
; #@! TA.AperFunction,Plated,PTH,ViaDrill
T3C0.500
%
G90
G05
T1
X18.85Y-123.44
X18.85Y-124.85
X19.58Y-151.75
X19.58Y-153.16
X20.46Y-123.45
X20.46Y-124.86
X21.53Y-151.73
X21.53Y-153.14
X23.18Y-151.73
X23.18Y-153.14
X24.77Y-123.43
X24.77Y-124.84
X24.79Y-151.74
X24.79Y-153.15
X26.72Y-123.41
X26.72Y-124.82
X28.37Y-123.41
X28.37Y-124.82
X29.98Y-123.42
X29.98Y-124.83
X32.58Y-151.69
X32.58Y-153.1
X33.92Y-123.31
X33.92Y-124.72
X34.19Y-151.7
X34.19Y-153.11
X35.87Y-123.29
X35.87Y-124.7
X37.52Y-123.29
X37.52Y-124.7
X39.13Y-123.3
X39.13Y-124.71
X39.72Y-151.65
X39.72Y-153.06
X41.67Y-151.63
X41.67Y-153.04
X43.23Y-123.12
X43.23Y-124.53
X43.32Y-151.63
X43.32Y-153.04
X44.88Y-123.12
X44.88Y-124.53
X44.93Y-151.64
X44.93Y-153.05
X46.49Y-123.13
X46.49Y-124.54
X47.009Y-119.614
X47.029Y-115.974
X47.029Y-117.434
X47.049Y-114.534
X49.599Y-119.594
X49.619Y-115.984
X49.629Y-117.364
X49.649Y-114.554
X51.009Y-138.854
X51.029Y-137.604
X51.419Y-128.324
X51.449Y-123.294
X51.469Y-125.454
X51.469Y-126.884
X51.749Y-114.534
X51.749Y-115.974
X51.749Y-119.584
X51.769Y-117.364
X52.119Y-138.844
X52.129Y-137.604
X53.629Y-123.304
X53.629Y-125.474
X53.629Y-126.894
X53.639Y-128.304
X55.989Y-123.264
X55.989Y-125.494
X56.009Y-126.894
X56.039Y-128.304
X61.54Y-113.28
X63.39Y-113.27
X65.39Y-113.28
X67.47Y-113.3
X69.7Y-113.31
X71.9Y-113.3
T2
X50.709Y-153.404
X51.539Y-130.434
X54.729Y-141.734
X56.229Y-113.994
T3
X34.239Y-113.424
X49.159Y-154.764
T0
M30
