G04 #@! TF.GenerationSoftware,KiCad,Pcbnew,(6.0.9)*
G04 #@! TF.CreationDate,2023-05-15T12:17:08+03:00*
G04 #@! TF.ProjectId,mainboard,6d61696e-626f-4617-9264-2e6b69636164,rev?*
G04 #@! TF.SameCoordinates,Original*
G04 #@! TF.FileFunction,Copper,L1,Top*
G04 #@! TF.FilePolarity,Positive*
%FSLAX46Y46*%
G04 Gerber Fmt 4.6, Leading zero omitted, Abs format (unit mm)*
G04 Created by KiCad (PCBNEW (6.0.9)) date 2023-05-15 12:17:08*
%MOMM*%
%LPD*%
G01*
G04 APERTURE LIST*
G04 Aperture macros list*
%AMRoundRect*
0 Rectangle with rounded corners*
0 $1 Rounding radius*
0 $2 $3 $4 $5 $6 $7 $8 $9 X,Y pos of 4 corners*
0 Add a 4 corners polygon primitive as box body*
4,1,4,$2,$3,$4,$5,$6,$7,$8,$9,$2,$3,0*
0 Add four circle primitives for the rounded corners*
1,1,$1+$1,$2,$3*
1,1,$1+$1,$4,$5*
1,1,$1+$1,$6,$7*
1,1,$1+$1,$8,$9*
0 Add four rect primitives between the rounded corners*
20,1,$1+$1,$2,$3,$4,$5,0*
20,1,$1+$1,$4,$5,$6,$7,0*
20,1,$1+$1,$6,$7,$8,$9,0*
20,1,$1+$1,$8,$9,$2,$3,0*%
G04 Aperture macros list end*
G04 #@! TA.AperFunction,SMDPad,CuDef*
%ADD10RoundRect,0.250000X0.337500X0.475000X-0.337500X0.475000X-0.337500X-0.475000X0.337500X-0.475000X0*%
G04 #@! TD*
G04 #@! TA.AperFunction,SMDPad,CuDef*
%ADD11RoundRect,0.250000X1.100000X-0.412500X1.100000X0.412500X-1.100000X0.412500X-1.100000X-0.412500X0*%
G04 #@! TD*
G04 #@! TA.AperFunction,SMDPad,CuDef*
%ADD12R,1.260000X3.610000*%
G04 #@! TD*
G04 #@! TA.AperFunction,SMDPad,CuDef*
%ADD13R,1.650000X4.500000*%
G04 #@! TD*
G04 #@! TA.AperFunction,SMDPad,CuDef*
%ADD14RoundRect,0.250000X-0.337500X-0.475000X0.337500X-0.475000X0.337500X0.475000X-0.337500X0.475000X0*%
G04 #@! TD*
G04 #@! TA.AperFunction,SMDPad,CuDef*
%ADD15RoundRect,0.250000X-0.450000X0.350000X-0.450000X-0.350000X0.450000X-0.350000X0.450000X0.350000X0*%
G04 #@! TD*
G04 #@! TA.AperFunction,SMDPad,CuDef*
%ADD16RoundRect,0.100000X0.100000X-0.687500X0.100000X0.687500X-0.100000X0.687500X-0.100000X-0.687500X0*%
G04 #@! TD*
G04 #@! TA.AperFunction,SMDPad,CuDef*
%ADD17R,5.000000X3.400000*%
G04 #@! TD*
G04 #@! TA.AperFunction,SMDPad,CuDef*
%ADD18R,0.850000X0.500000*%
G04 #@! TD*
G04 #@! TA.AperFunction,SMDPad,CuDef*
%ADD19R,4.550000X4.410000*%
G04 #@! TD*
G04 #@! TA.AperFunction,SMDPad,CuDef*
%ADD20RoundRect,0.250000X-0.350000X-0.450000X0.350000X-0.450000X0.350000X0.450000X-0.350000X0.450000X0*%
G04 #@! TD*
G04 #@! TA.AperFunction,SMDPad,CuDef*
%ADD21RoundRect,0.250000X0.350000X0.450000X-0.350000X0.450000X-0.350000X-0.450000X0.350000X-0.450000X0*%
G04 #@! TD*
G04 #@! TA.AperFunction,SMDPad,CuDef*
%ADD22R,14.000000X5.000000*%
G04 #@! TD*
G04 #@! TA.AperFunction,ViaPad*
%ADD23C,0.600000*%
G04 #@! TD*
G04 #@! TA.AperFunction,ViaPad*
%ADD24C,1.000000*%
G04 #@! TD*
G04 #@! TA.AperFunction,ViaPad*
%ADD25C,0.800000*%
G04 #@! TD*
G04 #@! TA.AperFunction,Conductor*
%ADD26C,0.400000*%
G04 #@! TD*
G04 #@! TA.AperFunction,Conductor*
%ADD27C,0.800000*%
G04 #@! TD*
G04 #@! TA.AperFunction,Conductor*
%ADD28C,1.000000*%
G04 #@! TD*
G04 #@! TA.AperFunction,Conductor*
%ADD29C,0.250000*%
G04 #@! TD*
G04 APERTURE END LIST*
D10*
X47846042Y-144124106D03*
X45771042Y-144124106D03*
D11*
X28408542Y-157375000D03*
X28408542Y-154250000D03*
D12*
X41068542Y-117349106D03*
X41068542Y-123939106D03*
D13*
X36658542Y-159814106D03*
X36658542Y-150814106D03*
D14*
X50471042Y-132134106D03*
X52546042Y-132134106D03*
D15*
X56528542Y-132434106D03*
X56528542Y-134434106D03*
D12*
X22818542Y-117414106D03*
X22818542Y-124004106D03*
D15*
X50728542Y-149564106D03*
X50728542Y-151564106D03*
D16*
X49588542Y-141126606D03*
X50238542Y-141126606D03*
X50888542Y-141126606D03*
X51538542Y-141126606D03*
X52188542Y-141126606D03*
X52838542Y-141126606D03*
X53488542Y-141126606D03*
X53488542Y-135401606D03*
X52838542Y-135401606D03*
X52188542Y-135401606D03*
X51538542Y-135401606D03*
X50888542Y-135401606D03*
X50238542Y-135401606D03*
X49588542Y-135401606D03*
D17*
X51538542Y-138264106D03*
D14*
X54441042Y-144014106D03*
X56516042Y-144014106D03*
D12*
X31958542Y-117389106D03*
X31958542Y-123979106D03*
D18*
X54638542Y-117799106D03*
X54638542Y-116529106D03*
X54638542Y-115259106D03*
X54638542Y-113989106D03*
D19*
X50688542Y-115894106D03*
D18*
X48728542Y-124899106D03*
X48728542Y-126169106D03*
X48728542Y-127439106D03*
X48728542Y-128709106D03*
D19*
X52678542Y-126804106D03*
D20*
X54378542Y-146444106D03*
X56378542Y-146444106D03*
D10*
X55766042Y-151624106D03*
X53691042Y-151624106D03*
X47776042Y-146604106D03*
X45701042Y-146604106D03*
D21*
X56228542Y-149144106D03*
X54228542Y-149144106D03*
D22*
X68348542Y-127024106D03*
X68348542Y-143624106D03*
D23*
X34190000Y-151700000D03*
X46490000Y-124540000D03*
X20460000Y-123450000D03*
X23180000Y-151730000D03*
X18850000Y-124850000D03*
X67470000Y-113300000D03*
X24790000Y-151740000D03*
X37520000Y-123290000D03*
X63390000Y-113270000D03*
X19580000Y-151750000D03*
X41670000Y-153040000D03*
X69700000Y-113310000D03*
X35870000Y-124700000D03*
X39130000Y-124710000D03*
X44930000Y-151640000D03*
X43320000Y-153040000D03*
X28370000Y-123410000D03*
X35870000Y-123290000D03*
X26720000Y-123410000D03*
X34190000Y-153110000D03*
X39130000Y-123300000D03*
X44880000Y-123120000D03*
X51028542Y-137604106D03*
X18850000Y-123440000D03*
X26720000Y-124820000D03*
X33920000Y-124720000D03*
X32580000Y-151690000D03*
X46490000Y-123130000D03*
X33920000Y-123310000D03*
X43320000Y-151630000D03*
X65390000Y-113280000D03*
X52128542Y-137604106D03*
X20460000Y-124860000D03*
X43230000Y-124530000D03*
X61540000Y-113280000D03*
X39720000Y-153060000D03*
X32580000Y-153100000D03*
X21530000Y-151730000D03*
X19580000Y-153160000D03*
X44880000Y-124530000D03*
X23180000Y-153140000D03*
X43230000Y-123120000D03*
X51008542Y-138854106D03*
X41670000Y-151630000D03*
X24790000Y-153150000D03*
X24770000Y-124840000D03*
X39720000Y-151650000D03*
X24770000Y-123430000D03*
X29980000Y-123420000D03*
X29980000Y-124830000D03*
X52118542Y-138844106D03*
X71900000Y-113300000D03*
X44930000Y-153050000D03*
X37520000Y-124700000D03*
X28370000Y-124820000D03*
X21530000Y-153140000D03*
X49628542Y-117364106D03*
X51768542Y-117364106D03*
X47008542Y-119614106D03*
X47028542Y-117434106D03*
X47028542Y-115974106D03*
X49648542Y-114554106D03*
X49598542Y-119594106D03*
X51748542Y-115974106D03*
X49618542Y-115984106D03*
X51748542Y-119584106D03*
D24*
X34238542Y-113424106D03*
D23*
X47048542Y-114534106D03*
D24*
X49158542Y-154764106D03*
D23*
X51748542Y-114534106D03*
D25*
X56228542Y-113994106D03*
X51538542Y-130434106D03*
D23*
X51468542Y-125454106D03*
X51418542Y-128324106D03*
X55988542Y-125494106D03*
X56038542Y-128304106D03*
X53628542Y-123304106D03*
X51468542Y-126884106D03*
X51448542Y-123294106D03*
X53638542Y-128304106D03*
X53628542Y-126894106D03*
X53628542Y-125474106D03*
X56008542Y-126894106D03*
X55988542Y-123264106D03*
D25*
X50708542Y-153404106D03*
X54728542Y-141734106D03*
D26*
X49588542Y-135401606D02*
X49588542Y-137374106D01*
X52838542Y-135401606D02*
X52838542Y-136964106D01*
X52188542Y-141126606D02*
X52188542Y-138914106D01*
D27*
X49188542Y-154734106D02*
X49188542Y-146604106D01*
D26*
X50238542Y-146444106D02*
X50078542Y-146604106D01*
D27*
X50078542Y-146604106D02*
X50678542Y-147204106D01*
X49188542Y-146604106D02*
X50078542Y-146604106D01*
X50678542Y-147204106D02*
X50678542Y-149514106D01*
D26*
X50238542Y-141126606D02*
X50238542Y-146444106D01*
D27*
X50678542Y-149514106D02*
X50728542Y-149564106D01*
X49158542Y-154764106D02*
X49188542Y-154734106D01*
X47776042Y-146604106D02*
X49188542Y-146604106D01*
D28*
X56228542Y-149144106D02*
X59938542Y-149144106D01*
X55766042Y-151624106D02*
X59868542Y-151624106D01*
D26*
X59868542Y-151624106D02*
X59878542Y-151634106D01*
X59938542Y-149144106D02*
X59958542Y-149164106D01*
X50238542Y-135401606D02*
X50238542Y-133564106D01*
X48278542Y-129159106D02*
X48728542Y-128709106D01*
X48458542Y-133554106D02*
X48278542Y-133374106D01*
X50238542Y-133564106D02*
X48458542Y-133564106D01*
X48278542Y-133374106D02*
X48278542Y-129159106D01*
D29*
X50888542Y-132551606D02*
X50471042Y-132134106D01*
D26*
X50888542Y-135401606D02*
X50888542Y-132551606D01*
X51538542Y-135401606D02*
X51538542Y-130434106D01*
X54638542Y-113989106D02*
X56223542Y-113989106D01*
X56223542Y-113989106D02*
X56228542Y-113994106D01*
X52188542Y-135401606D02*
X52188542Y-132491606D01*
D29*
X52188542Y-132491606D02*
X52546042Y-132134106D01*
D26*
X55561042Y-135401606D02*
X56528542Y-134434106D01*
X53488542Y-135401606D02*
X55561042Y-135401606D01*
X49588542Y-143934106D02*
X49358542Y-144164106D01*
X49358542Y-144164106D02*
X47886042Y-144164106D01*
X47886042Y-144164106D02*
X47846042Y-144124106D01*
X49588542Y-141126606D02*
X49588542Y-143934106D01*
X51888542Y-146444106D02*
X54378542Y-146444106D01*
X52418542Y-146474106D02*
X52418542Y-149124106D01*
X52418542Y-151504106D02*
X52538542Y-151624106D01*
X52438542Y-149144106D02*
X52418542Y-149124106D01*
X54228542Y-149144106D02*
X52438542Y-149144106D01*
X51538542Y-146094106D02*
X51888542Y-146444106D01*
X51538542Y-141126606D02*
X51538542Y-146094106D01*
X52418542Y-149124106D02*
X52418542Y-151504106D01*
X52538542Y-151624106D02*
X53691042Y-151624106D01*
X52838542Y-141126606D02*
X52838542Y-143984106D01*
X52838542Y-143984106D02*
X52868542Y-144014106D01*
X52868542Y-144014106D02*
X54441042Y-144014106D01*
X54728542Y-141734106D02*
X54121042Y-141126606D01*
X54121042Y-141126606D02*
X53488542Y-141126606D01*
X50688542Y-151364106D02*
X50688542Y-153384106D01*
X50688542Y-153384106D02*
X50708542Y-153404106D01*
G04 #@! TA.AperFunction,Conductor*
G36*
X21657884Y-121884108D02*
G01*
X21704377Y-121937764D01*
X21714481Y-122008038D01*
X21707745Y-122034336D01*
X21690064Y-122081500D01*
X21686437Y-122096755D01*
X21680911Y-122147620D01*
X21680542Y-122154434D01*
X21680542Y-123485991D01*
X21685017Y-123501230D01*
X21686407Y-123502435D01*
X21694090Y-123504106D01*
X23938426Y-123504106D01*
X23953665Y-123499631D01*
X23954870Y-123498241D01*
X23956541Y-123490558D01*
X23956541Y-122154437D01*
X23956171Y-122147616D01*
X23950647Y-122096754D01*
X23947021Y-122081503D01*
X23929339Y-122034336D01*
X23924156Y-121963529D01*
X23958077Y-121901160D01*
X24020332Y-121867030D01*
X24047321Y-121864106D01*
X30720391Y-121864106D01*
X30788512Y-121884108D01*
X30835005Y-121937764D01*
X30845109Y-122008038D01*
X30838373Y-122034337D01*
X30830063Y-122056504D01*
X30826437Y-122071755D01*
X30820911Y-122122620D01*
X30820542Y-122129434D01*
X30820542Y-123460991D01*
X30825017Y-123476230D01*
X30826407Y-123477435D01*
X30834090Y-123479106D01*
X33078426Y-123479106D01*
X33093665Y-123474631D01*
X33094870Y-123473241D01*
X33096541Y-123465558D01*
X33096541Y-122129437D01*
X33096171Y-122122616D01*
X33090647Y-122071754D01*
X33087022Y-122056506D01*
X33078711Y-122034337D01*
X33073528Y-121963530D01*
X33107448Y-121901160D01*
X33169703Y-121867031D01*
X33196693Y-121864106D01*
X39816826Y-121864106D01*
X39884947Y-121884108D01*
X39931440Y-121937764D01*
X39941544Y-122008038D01*
X39939409Y-122019250D01*
X39936437Y-122031750D01*
X39930911Y-122082620D01*
X39930542Y-122089434D01*
X39930542Y-123420991D01*
X39935017Y-123436230D01*
X39936407Y-123437435D01*
X39944090Y-123439106D01*
X42188426Y-123439106D01*
X42203665Y-123434631D01*
X42204870Y-123433241D01*
X42206541Y-123425558D01*
X42206541Y-122089437D01*
X42206171Y-122082616D01*
X42200648Y-122031759D01*
X42197674Y-122019252D01*
X42201376Y-121948352D01*
X42242822Y-121890708D01*
X42308853Y-121864623D01*
X42320257Y-121864106D01*
X49132542Y-121864106D01*
X49200663Y-121884108D01*
X49247156Y-121937764D01*
X49258542Y-121990106D01*
X49258542Y-124015106D01*
X49238540Y-124083227D01*
X49184884Y-124129720D01*
X49132542Y-124141106D01*
X48996657Y-124141106D01*
X48981418Y-124145581D01*
X48980213Y-124146971D01*
X48978542Y-124154654D01*
X48978542Y-127563106D01*
X48958540Y-127631227D01*
X48904884Y-127677720D01*
X48852542Y-127689106D01*
X47813658Y-127689106D01*
X47798419Y-127693581D01*
X47797214Y-127694971D01*
X47795543Y-127702654D01*
X47795543Y-127733775D01*
X47795913Y-127740596D01*
X47801437Y-127791458D01*
X47805064Y-127806712D01*
X47837740Y-127893877D01*
X47842923Y-127964684D01*
X47809002Y-128027053D01*
X47746747Y-128061182D01*
X47719758Y-128064106D01*
X46728542Y-128064106D01*
X46728542Y-142915132D01*
X46708540Y-142983253D01*
X46654884Y-143029746D01*
X46584610Y-143039850D01*
X46536426Y-143022392D01*
X46437297Y-142961288D01*
X46424119Y-142955144D01*
X46288236Y-142910073D01*
X46274143Y-142909584D01*
X46271042Y-142915796D01*
X46271042Y-145287549D01*
X46251040Y-145355670D01*
X46221582Y-145381196D01*
X46202713Y-145402971D01*
X46201042Y-145410654D01*
X46201042Y-147805875D01*
X46205015Y-147819406D01*
X46211841Y-147820387D01*
X46355331Y-147772516D01*
X46368499Y-147766348D01*
X46506349Y-147681043D01*
X46523487Y-147667460D01*
X46525363Y-147669827D01*
X46575681Y-147642310D01*
X46646500Y-147647331D01*
X46703363Y-147689841D01*
X46728215Y-147756346D01*
X46728542Y-147765414D01*
X46728542Y-155298106D01*
X46708540Y-155366227D01*
X46654884Y-155412720D01*
X46602542Y-155424106D01*
X30123156Y-155424106D01*
X30055035Y-155404104D01*
X30008542Y-155350448D01*
X29998438Y-155280174D01*
X30027932Y-155215594D01*
X30033983Y-155209088D01*
X30102281Y-155140671D01*
X30111293Y-155129260D01*
X30196358Y-154991257D01*
X30202505Y-154978076D01*
X30253680Y-154823790D01*
X30256547Y-154810414D01*
X30260890Y-154768023D01*
X30258162Y-154753323D01*
X30245929Y-154750000D01*
X26572511Y-154750000D01*
X26558194Y-154754204D01*
X26556135Y-154766761D01*
X26560798Y-154811705D01*
X26563691Y-154825102D01*
X26615130Y-154979284D01*
X26621303Y-154992462D01*
X26706605Y-155130307D01*
X26715641Y-155141708D01*
X26782983Y-155208933D01*
X26817062Y-155271216D01*
X26812059Y-155342036D01*
X26769562Y-155398909D01*
X26703063Y-155423777D01*
X26693965Y-155424106D01*
X17464500Y-155424106D01*
X17396379Y-155404104D01*
X17349886Y-155350448D01*
X17338500Y-155298106D01*
X17338500Y-153731977D01*
X26556194Y-153731977D01*
X26558922Y-153746677D01*
X26571155Y-153750000D01*
X27890427Y-153750000D01*
X27905666Y-153745525D01*
X27906871Y-153744135D01*
X27908542Y-153736452D01*
X27908542Y-153731885D01*
X28908542Y-153731885D01*
X28913017Y-153747124D01*
X28914407Y-153748329D01*
X28922090Y-153750000D01*
X30244573Y-153750000D01*
X30258890Y-153745796D01*
X30260949Y-153733239D01*
X30256286Y-153688295D01*
X30253393Y-153674898D01*
X30201954Y-153520716D01*
X30195781Y-153507538D01*
X30110479Y-153369693D01*
X30101443Y-153358292D01*
X29986713Y-153243761D01*
X29975302Y-153234749D01*
X29837299Y-153149684D01*
X29824118Y-153143537D01*
X29719315Y-153108775D01*
X35325543Y-153108775D01*
X35325913Y-153115596D01*
X35331437Y-153166458D01*
X35335063Y-153181710D01*
X35380218Y-153302160D01*
X35388756Y-153317755D01*
X35465257Y-153419830D01*
X35477818Y-153432391D01*
X35579893Y-153508892D01*
X35595488Y-153517430D01*
X35715936Y-153562584D01*
X35731191Y-153566211D01*
X35782056Y-153571737D01*
X35788870Y-153572106D01*
X36140427Y-153572106D01*
X36155666Y-153567631D01*
X36156871Y-153566241D01*
X36158542Y-153558558D01*
X36158542Y-153553990D01*
X37158542Y-153553990D01*
X37163017Y-153569229D01*
X37164407Y-153570434D01*
X37172090Y-153572105D01*
X37528211Y-153572105D01*
X37535032Y-153571735D01*
X37585894Y-153566211D01*
X37601146Y-153562585D01*
X37721596Y-153517430D01*
X37737191Y-153508892D01*
X37839266Y-153432391D01*
X37851827Y-153419830D01*
X37928328Y-153317755D01*
X37936866Y-153302160D01*
X37982020Y-153181712D01*
X37985647Y-153166457D01*
X37991173Y-153115592D01*
X37991542Y-153108778D01*
X37991542Y-151332221D01*
X37987067Y-151316982D01*
X37985677Y-151315777D01*
X37977994Y-151314106D01*
X37176657Y-151314106D01*
X37161418Y-151318581D01*
X37160213Y-151319971D01*
X37158542Y-151327654D01*
X37158542Y-153553990D01*
X36158542Y-153553990D01*
X36158542Y-151332221D01*
X36154067Y-151316982D01*
X36152677Y-151315777D01*
X36144994Y-151314106D01*
X35343658Y-151314106D01*
X35328419Y-151318581D01*
X35327214Y-151319971D01*
X35325543Y-151327654D01*
X35325543Y-153108775D01*
X29719315Y-153108775D01*
X29669832Y-153092362D01*
X29656456Y-153089495D01*
X29562104Y-153079828D01*
X29555687Y-153079500D01*
X28926657Y-153079500D01*
X28911418Y-153083975D01*
X28910213Y-153085365D01*
X28908542Y-153093048D01*
X28908542Y-153731885D01*
X27908542Y-153731885D01*
X27908542Y-153097616D01*
X27904067Y-153082377D01*
X27902677Y-153081172D01*
X27894994Y-153079501D01*
X27261447Y-153079501D01*
X27254928Y-153079838D01*
X27159336Y-153089757D01*
X27145942Y-153092649D01*
X26991758Y-153144088D01*
X26978580Y-153150261D01*
X26840735Y-153235563D01*
X26829334Y-153244599D01*
X26714803Y-153359329D01*
X26705791Y-153370740D01*
X26620726Y-153508743D01*
X26614579Y-153521924D01*
X26563404Y-153676210D01*
X26560537Y-153689586D01*
X26556194Y-153731977D01*
X17338500Y-153731977D01*
X17338500Y-150295991D01*
X35325542Y-150295991D01*
X35330017Y-150311230D01*
X35331407Y-150312435D01*
X35339090Y-150314106D01*
X36140427Y-150314106D01*
X36155666Y-150309631D01*
X36156871Y-150308241D01*
X36158542Y-150300558D01*
X36158542Y-150295991D01*
X37158542Y-150295991D01*
X37163017Y-150311230D01*
X37164407Y-150312435D01*
X37172090Y-150314106D01*
X37973426Y-150314106D01*
X37988665Y-150309631D01*
X37989870Y-150308241D01*
X37991541Y-150300558D01*
X37991541Y-148519437D01*
X37991171Y-148512616D01*
X37985647Y-148461754D01*
X37982021Y-148446502D01*
X37936866Y-148326052D01*
X37928328Y-148310457D01*
X37851827Y-148208382D01*
X37839266Y-148195821D01*
X37737191Y-148119320D01*
X37721596Y-148110782D01*
X37601148Y-148065628D01*
X37585893Y-148062001D01*
X37535028Y-148056475D01*
X37528214Y-148056106D01*
X37176657Y-148056106D01*
X37161418Y-148060581D01*
X37160213Y-148061971D01*
X37158542Y-148069654D01*
X37158542Y-150295991D01*
X36158542Y-150295991D01*
X36158542Y-148074222D01*
X36154067Y-148058983D01*
X36152677Y-148057778D01*
X36144994Y-148056107D01*
X35788873Y-148056107D01*
X35782052Y-148056477D01*
X35731190Y-148062001D01*
X35715938Y-148065627D01*
X35595488Y-148110782D01*
X35579893Y-148119320D01*
X35477818Y-148195821D01*
X35465257Y-148208382D01*
X35388756Y-148310457D01*
X35380218Y-148326052D01*
X35335064Y-148446500D01*
X35331437Y-148461755D01*
X35325911Y-148512620D01*
X35325542Y-148519434D01*
X35325542Y-150295991D01*
X17338500Y-150295991D01*
X17338500Y-147126201D01*
X44605543Y-147126201D01*
X44605880Y-147132720D01*
X44615799Y-147228312D01*
X44618691Y-147241706D01*
X44670130Y-147395890D01*
X44676303Y-147409068D01*
X44761605Y-147546913D01*
X44770641Y-147558314D01*
X44885371Y-147672845D01*
X44896782Y-147681857D01*
X45034787Y-147766924D01*
X45047965Y-147773068D01*
X45183848Y-147818139D01*
X45197941Y-147818628D01*
X45201042Y-147812416D01*
X45201042Y-147122221D01*
X45196567Y-147106982D01*
X45195177Y-147105777D01*
X45187494Y-147104106D01*
X44623658Y-147104106D01*
X44608419Y-147108581D01*
X44607214Y-147109971D01*
X44605543Y-147117654D01*
X44605543Y-147126201D01*
X17338500Y-147126201D01*
X17338500Y-146085991D01*
X44605542Y-146085991D01*
X44610017Y-146101230D01*
X44611407Y-146102435D01*
X44619090Y-146104106D01*
X45182927Y-146104106D01*
X45198166Y-146099631D01*
X45199371Y-146098241D01*
X45201042Y-146090558D01*
X45201042Y-145440663D01*
X45221044Y-145372542D01*
X45250502Y-145347016D01*
X45269371Y-145325241D01*
X45271042Y-145317558D01*
X45271042Y-144642221D01*
X45266567Y-144626982D01*
X45265177Y-144625777D01*
X45257494Y-144624106D01*
X44693658Y-144624106D01*
X44678419Y-144628581D01*
X44677214Y-144629971D01*
X44675543Y-144637654D01*
X44675543Y-144646201D01*
X44675880Y-144652720D01*
X44685799Y-144748312D01*
X44688691Y-144761706D01*
X44740130Y-144915890D01*
X44746303Y-144929068D01*
X44831605Y-145066913D01*
X44840641Y-145078314D01*
X44955371Y-145192845D01*
X44966782Y-145201857D01*
X45020883Y-145235205D01*
X45068376Y-145287977D01*
X45079800Y-145358049D01*
X45051526Y-145423172D01*
X45021070Y-145449609D01*
X44895735Y-145527169D01*
X44884334Y-145536205D01*
X44769803Y-145650935D01*
X44760791Y-145662346D01*
X44675726Y-145800349D01*
X44669579Y-145813530D01*
X44618404Y-145967816D01*
X44615537Y-145981192D01*
X44605870Y-146075544D01*
X44605542Y-146081961D01*
X44605542Y-146085991D01*
X17338500Y-146085991D01*
X17338500Y-143605991D01*
X44675542Y-143605991D01*
X44680017Y-143621230D01*
X44681407Y-143622435D01*
X44689090Y-143624106D01*
X45252927Y-143624106D01*
X45268166Y-143619631D01*
X45269371Y-143618241D01*
X45271042Y-143610558D01*
X45271042Y-142922337D01*
X45267069Y-142908806D01*
X45260243Y-142907825D01*
X45116753Y-142955696D01*
X45103585Y-142961864D01*
X44965735Y-143047169D01*
X44954334Y-143056205D01*
X44839803Y-143170935D01*
X44830791Y-143182346D01*
X44745726Y-143320349D01*
X44739579Y-143333530D01*
X44688404Y-143487816D01*
X44685537Y-143501192D01*
X44675870Y-143595544D01*
X44675542Y-143601961D01*
X44675542Y-143605991D01*
X17338500Y-143605991D01*
X17338500Y-127170991D01*
X47795542Y-127170991D01*
X47800017Y-127186230D01*
X47801407Y-127187435D01*
X47809090Y-127189106D01*
X48460427Y-127189106D01*
X48475666Y-127184631D01*
X48476871Y-127183241D01*
X48478542Y-127175558D01*
X48478542Y-126437221D01*
X48474067Y-126421982D01*
X48472677Y-126420777D01*
X48464994Y-126419106D01*
X47813658Y-126419106D01*
X47798419Y-126423581D01*
X47797214Y-126424971D01*
X47795543Y-126432654D01*
X47795543Y-126463775D01*
X47795913Y-126470596D01*
X47801437Y-126521458D01*
X47805063Y-126536710D01*
X47850218Y-126657160D01*
X47858755Y-126672754D01*
X47900566Y-126728542D01*
X47925413Y-126795048D01*
X47910360Y-126864431D01*
X47900566Y-126879670D01*
X47858755Y-126935458D01*
X47850218Y-126951052D01*
X47805064Y-127071500D01*
X47801437Y-127086755D01*
X47795911Y-127137620D01*
X47795542Y-127144434D01*
X47795542Y-127170991D01*
X17338500Y-127170991D01*
X17338500Y-125853775D01*
X21680543Y-125853775D01*
X21680913Y-125860596D01*
X21686437Y-125911458D01*
X21690063Y-125926710D01*
X21735218Y-126047160D01*
X21743756Y-126062755D01*
X21820257Y-126164830D01*
X21832818Y-126177391D01*
X21934893Y-126253892D01*
X21950488Y-126262430D01*
X22070936Y-126307584D01*
X22086191Y-126311211D01*
X22137056Y-126316737D01*
X22143870Y-126317106D01*
X22300427Y-126317106D01*
X22315666Y-126312631D01*
X22316871Y-126311241D01*
X22318542Y-126303558D01*
X22318542Y-126298990D01*
X23318542Y-126298990D01*
X23323017Y-126314229D01*
X23324407Y-126315434D01*
X23332090Y-126317105D01*
X23493211Y-126317105D01*
X23500032Y-126316735D01*
X23550894Y-126311211D01*
X23566146Y-126307585D01*
X23686596Y-126262430D01*
X23702191Y-126253892D01*
X23804266Y-126177391D01*
X23816827Y-126164830D01*
X23893328Y-126062755D01*
X23901866Y-126047160D01*
X23947020Y-125926712D01*
X23950647Y-125911457D01*
X23956173Y-125860592D01*
X23956542Y-125853778D01*
X23956542Y-125828775D01*
X30820543Y-125828775D01*
X30820913Y-125835596D01*
X30826437Y-125886458D01*
X30830063Y-125901710D01*
X30875218Y-126022160D01*
X30883756Y-126037755D01*
X30960257Y-126139830D01*
X30972818Y-126152391D01*
X31074893Y-126228892D01*
X31090488Y-126237430D01*
X31210936Y-126282584D01*
X31226191Y-126286211D01*
X31277056Y-126291737D01*
X31283870Y-126292106D01*
X31440427Y-126292106D01*
X31455666Y-126287631D01*
X31456871Y-126286241D01*
X31458542Y-126278558D01*
X31458542Y-126273990D01*
X32458542Y-126273990D01*
X32463017Y-126289229D01*
X32464407Y-126290434D01*
X32472090Y-126292105D01*
X32633211Y-126292105D01*
X32640032Y-126291735D01*
X32690894Y-126286211D01*
X32706146Y-126282585D01*
X32826596Y-126237430D01*
X32842191Y-126228892D01*
X32944266Y-126152391D01*
X32956827Y-126139830D01*
X33033328Y-126037755D01*
X33041866Y-126022160D01*
X33087020Y-125901712D01*
X33090647Y-125886457D01*
X33096173Y-125835592D01*
X33096542Y-125828778D01*
X33096542Y-125788775D01*
X39930543Y-125788775D01*
X39930913Y-125795596D01*
X39936437Y-125846458D01*
X39940063Y-125861710D01*
X39985218Y-125982160D01*
X39993756Y-125997755D01*
X40070257Y-126099830D01*
X40082818Y-126112391D01*
X40184893Y-126188892D01*
X40200488Y-126197430D01*
X40320936Y-126242584D01*
X40336191Y-126246211D01*
X40387056Y-126251737D01*
X40393870Y-126252106D01*
X40550427Y-126252106D01*
X40565666Y-126247631D01*
X40566871Y-126246241D01*
X40568542Y-126238558D01*
X40568542Y-126233990D01*
X41568542Y-126233990D01*
X41573017Y-126249229D01*
X41574407Y-126250434D01*
X41582090Y-126252105D01*
X41743211Y-126252105D01*
X41750032Y-126251735D01*
X41800894Y-126246211D01*
X41816146Y-126242585D01*
X41936596Y-126197430D01*
X41952191Y-126188892D01*
X42054266Y-126112391D01*
X42066827Y-126099830D01*
X42143328Y-125997755D01*
X42151866Y-125982160D01*
X42182295Y-125900991D01*
X47795542Y-125900991D01*
X47800017Y-125916230D01*
X47801407Y-125917435D01*
X47809090Y-125919106D01*
X48460427Y-125919106D01*
X48475666Y-125914631D01*
X48476871Y-125913241D01*
X48478542Y-125905558D01*
X48478542Y-125167221D01*
X48474067Y-125151982D01*
X48472677Y-125150777D01*
X48464994Y-125149106D01*
X47813658Y-125149106D01*
X47798419Y-125153581D01*
X47797214Y-125154971D01*
X47795543Y-125162654D01*
X47795543Y-125193775D01*
X47795913Y-125200596D01*
X47801437Y-125251458D01*
X47805063Y-125266710D01*
X47850218Y-125387160D01*
X47858755Y-125402754D01*
X47900566Y-125458542D01*
X47925413Y-125525048D01*
X47910360Y-125594431D01*
X47900566Y-125609670D01*
X47858755Y-125665458D01*
X47850218Y-125681052D01*
X47805064Y-125801500D01*
X47801437Y-125816755D01*
X47795911Y-125867620D01*
X47795542Y-125874434D01*
X47795542Y-125900991D01*
X42182295Y-125900991D01*
X42197020Y-125861712D01*
X42200647Y-125846457D01*
X42206173Y-125795592D01*
X42206542Y-125788778D01*
X42206542Y-124630991D01*
X47795542Y-124630991D01*
X47800017Y-124646230D01*
X47801407Y-124647435D01*
X47809090Y-124649106D01*
X48460427Y-124649106D01*
X48475666Y-124644631D01*
X48476871Y-124643241D01*
X48478542Y-124635558D01*
X48478542Y-124159222D01*
X48474067Y-124143983D01*
X48472677Y-124142778D01*
X48464994Y-124141107D01*
X48258873Y-124141107D01*
X48252052Y-124141477D01*
X48201190Y-124147001D01*
X48185938Y-124150627D01*
X48065488Y-124195782D01*
X48049893Y-124204320D01*
X47947818Y-124280821D01*
X47935257Y-124293382D01*
X47858756Y-124395457D01*
X47850218Y-124411052D01*
X47805064Y-124531500D01*
X47801437Y-124546755D01*
X47795911Y-124597620D01*
X47795542Y-124604434D01*
X47795542Y-124630991D01*
X42206542Y-124630991D01*
X42206542Y-124457221D01*
X42202067Y-124441982D01*
X42200677Y-124440777D01*
X42192994Y-124439106D01*
X41586657Y-124439106D01*
X41571418Y-124443581D01*
X41570213Y-124444971D01*
X41568542Y-124452654D01*
X41568542Y-126233990D01*
X40568542Y-126233990D01*
X40568542Y-124457221D01*
X40564067Y-124441982D01*
X40562677Y-124440777D01*
X40554994Y-124439106D01*
X39948658Y-124439106D01*
X39933419Y-124443581D01*
X39932214Y-124444971D01*
X39930543Y-124452654D01*
X39930543Y-125788775D01*
X33096542Y-125788775D01*
X33096542Y-124497221D01*
X33092067Y-124481982D01*
X33090677Y-124480777D01*
X33082994Y-124479106D01*
X32476657Y-124479106D01*
X32461418Y-124483581D01*
X32460213Y-124484971D01*
X32458542Y-124492654D01*
X32458542Y-126273990D01*
X31458542Y-126273990D01*
X31458542Y-124497221D01*
X31454067Y-124481982D01*
X31452677Y-124480777D01*
X31444994Y-124479106D01*
X30838658Y-124479106D01*
X30823419Y-124483581D01*
X30822214Y-124484971D01*
X30820543Y-124492654D01*
X30820543Y-125828775D01*
X23956542Y-125828775D01*
X23956542Y-124522221D01*
X23952067Y-124506982D01*
X23950677Y-124505777D01*
X23942994Y-124504106D01*
X23336657Y-124504106D01*
X23321418Y-124508581D01*
X23320213Y-124509971D01*
X23318542Y-124517654D01*
X23318542Y-126298990D01*
X22318542Y-126298990D01*
X22318542Y-124522221D01*
X22314067Y-124506982D01*
X22312677Y-124505777D01*
X22304994Y-124504106D01*
X21698658Y-124504106D01*
X21683419Y-124508581D01*
X21682214Y-124509971D01*
X21680543Y-124517654D01*
X21680543Y-125853775D01*
X17338500Y-125853775D01*
X17338500Y-121990106D01*
X17358502Y-121921985D01*
X17412158Y-121875492D01*
X17464500Y-121864106D01*
X21589763Y-121864106D01*
X21657884Y-121884108D01*
G37*
G04 #@! TD.AperFunction*
G04 #@! TA.AperFunction,Conductor*
G36*
X49809417Y-136604108D02*
G01*
X49818000Y-136610143D01*
X49831667Y-136620630D01*
X49979692Y-136681944D01*
X49987880Y-136683022D01*
X50094563Y-136697067D01*
X50098657Y-136697606D01*
X50238525Y-136697606D01*
X50378426Y-136697605D01*
X50382511Y-136697067D01*
X50382515Y-136697067D01*
X50489205Y-136683022D01*
X50489207Y-136683022D01*
X50497392Y-136681944D01*
X50515323Y-136674517D01*
X50585912Y-136666927D01*
X50611760Y-136674516D01*
X50615203Y-136675943D01*
X50622062Y-136678784D01*
X50622065Y-136678785D01*
X50629692Y-136681944D01*
X50637880Y-136683022D01*
X50744563Y-136697067D01*
X50748657Y-136697606D01*
X50888525Y-136697606D01*
X51028426Y-136697605D01*
X51032511Y-136697067D01*
X51032515Y-136697067D01*
X51139205Y-136683022D01*
X51139207Y-136683022D01*
X51147392Y-136681944D01*
X51165323Y-136674517D01*
X51235912Y-136666927D01*
X51261760Y-136674516D01*
X51265203Y-136675943D01*
X51272062Y-136678784D01*
X51272065Y-136678785D01*
X51279692Y-136681944D01*
X51287880Y-136683022D01*
X51394563Y-136697067D01*
X51398657Y-136697606D01*
X51538525Y-136697606D01*
X51678426Y-136697605D01*
X51682511Y-136697067D01*
X51682515Y-136697067D01*
X51789205Y-136683022D01*
X51789207Y-136683022D01*
X51797392Y-136681944D01*
X51815323Y-136674517D01*
X51885912Y-136666927D01*
X51911760Y-136674516D01*
X51915203Y-136675943D01*
X51922062Y-136678784D01*
X51922065Y-136678785D01*
X51929692Y-136681944D01*
X51937880Y-136683022D01*
X52044563Y-136697067D01*
X52048657Y-136697606D01*
X52188525Y-136697606D01*
X52328426Y-136697605D01*
X52332511Y-136697067D01*
X52332515Y-136697067D01*
X52439205Y-136683022D01*
X52439207Y-136683022D01*
X52447392Y-136681944D01*
X52521405Y-136651287D01*
X52587790Y-136623790D01*
X52587792Y-136623789D01*
X52595418Y-136620630D01*
X52609082Y-136610145D01*
X52675302Y-136584543D01*
X52685788Y-136584106D01*
X52991296Y-136584106D01*
X53059417Y-136604108D01*
X53068000Y-136610143D01*
X53081667Y-136620630D01*
X53229692Y-136681944D01*
X53237880Y-136683022D01*
X53344563Y-136697067D01*
X53348657Y-136697606D01*
X53488525Y-136697606D01*
X53628426Y-136697605D01*
X53632511Y-136697067D01*
X53632515Y-136697067D01*
X53739205Y-136683022D01*
X53739207Y-136683022D01*
X53747392Y-136681944D01*
X53821405Y-136651287D01*
X53887790Y-136623790D01*
X53887792Y-136623789D01*
X53895418Y-136620630D01*
X53909082Y-136610145D01*
X53975302Y-136584543D01*
X53985788Y-136584106D01*
X58342542Y-136584106D01*
X58410663Y-136604108D01*
X58457156Y-136657764D01*
X58468542Y-136710106D01*
X58468542Y-139874106D01*
X53839662Y-139874106D01*
X53791444Y-139864515D01*
X53755021Y-139849428D01*
X53747392Y-139846268D01*
X53739204Y-139845190D01*
X53632514Y-139831144D01*
X53632513Y-139831144D01*
X53628427Y-139830606D01*
X53488559Y-139830606D01*
X53348658Y-139830607D01*
X53344573Y-139831145D01*
X53344569Y-139831145D01*
X53237879Y-139845190D01*
X53237877Y-139845190D01*
X53229692Y-139846268D01*
X53211761Y-139853695D01*
X53141172Y-139861285D01*
X53115324Y-139853696D01*
X53111881Y-139852269D01*
X53105022Y-139849428D01*
X53105019Y-139849427D01*
X53097392Y-139846268D01*
X53089204Y-139845190D01*
X52982514Y-139831144D01*
X52982513Y-139831144D01*
X52978427Y-139830606D01*
X52838559Y-139830606D01*
X52698658Y-139830607D01*
X52694573Y-139831145D01*
X52694569Y-139831145D01*
X52587879Y-139845190D01*
X52587877Y-139845190D01*
X52579692Y-139846268D01*
X52561762Y-139853695D01*
X52535640Y-139864515D01*
X52487422Y-139874106D01*
X51889662Y-139874106D01*
X51841444Y-139864515D01*
X51805021Y-139849428D01*
X51797392Y-139846268D01*
X51789204Y-139845190D01*
X51682514Y-139831144D01*
X51682513Y-139831144D01*
X51678427Y-139830606D01*
X51538559Y-139830606D01*
X51398658Y-139830607D01*
X51394573Y-139831145D01*
X51394569Y-139831145D01*
X51287879Y-139845190D01*
X51287877Y-139845190D01*
X51279692Y-139846268D01*
X51261761Y-139853695D01*
X51191172Y-139861285D01*
X51165324Y-139853696D01*
X51161881Y-139852269D01*
X51155022Y-139849428D01*
X51155019Y-139849427D01*
X51147392Y-139846268D01*
X51139204Y-139845190D01*
X51032514Y-139831144D01*
X51032513Y-139831144D01*
X51028427Y-139830606D01*
X50888559Y-139830606D01*
X50748658Y-139830607D01*
X50744573Y-139831145D01*
X50744569Y-139831145D01*
X50637879Y-139845190D01*
X50637877Y-139845190D01*
X50629692Y-139846268D01*
X50611761Y-139853695D01*
X50541172Y-139861285D01*
X50515324Y-139853696D01*
X50511881Y-139852269D01*
X50505022Y-139849428D01*
X50505019Y-139849427D01*
X50497392Y-139846268D01*
X50489204Y-139845190D01*
X50382514Y-139831144D01*
X50382513Y-139831144D01*
X50378427Y-139830606D01*
X50238559Y-139830606D01*
X50098658Y-139830607D01*
X50094573Y-139831145D01*
X50094569Y-139831145D01*
X49987879Y-139845190D01*
X49987877Y-139845190D01*
X49979692Y-139846268D01*
X49961761Y-139853695D01*
X49891172Y-139861285D01*
X49865324Y-139853696D01*
X49861881Y-139852269D01*
X49855022Y-139849428D01*
X49855019Y-139849427D01*
X49847392Y-139846268D01*
X49839204Y-139845190D01*
X49732514Y-139831144D01*
X49732513Y-139831144D01*
X49728427Y-139830606D01*
X49588559Y-139830606D01*
X49448658Y-139830607D01*
X49444573Y-139831145D01*
X49444569Y-139831145D01*
X49337879Y-139845190D01*
X49337877Y-139845190D01*
X49329692Y-139846268D01*
X49311762Y-139853695D01*
X49285640Y-139864515D01*
X49237422Y-139874106D01*
X46318542Y-139874106D01*
X46318542Y-136584106D01*
X49741296Y-136584106D01*
X49809417Y-136604108D01*
G37*
G04 #@! TD.AperFunction*
G04 #@! TA.AperFunction,Conductor*
G36*
X55940329Y-114860262D02*
G01*
X55946254Y-114862900D01*
X55971915Y-114868354D01*
X56126598Y-114901234D01*
X56126603Y-114901234D01*
X56133055Y-114902606D01*
X56324029Y-114902606D01*
X56330481Y-114901234D01*
X56330486Y-114901234D01*
X56485169Y-114868354D01*
X56510830Y-114862900D01*
X56516755Y-114860262D01*
X56555618Y-114854106D01*
X77225500Y-114854106D01*
X77293621Y-114874108D01*
X77340114Y-114927764D01*
X77351500Y-114980106D01*
X77351500Y-134528106D01*
X77331498Y-134596227D01*
X77277842Y-134642720D01*
X77225500Y-134654106D01*
X58354542Y-134654106D01*
X58286421Y-134634104D01*
X58239928Y-134580448D01*
X58228542Y-134528106D01*
X58228542Y-133424106D01*
X57700188Y-133424106D01*
X57632067Y-133404104D01*
X57585574Y-133350448D01*
X57575470Y-133280174D01*
X57592928Y-133231990D01*
X57666358Y-133112863D01*
X57672505Y-133099682D01*
X57723396Y-132946252D01*
X57721760Y-132937431D01*
X57709521Y-132934106D01*
X55348996Y-132934106D01*
X55334678Y-132938310D01*
X55333470Y-132945683D01*
X55333690Y-132946705D01*
X55385130Y-133100890D01*
X55391304Y-133114069D01*
X55464160Y-133231803D01*
X55482998Y-133300255D01*
X55461837Y-133368025D01*
X55407396Y-133413596D01*
X55357016Y-133424106D01*
X53444354Y-133424106D01*
X53376233Y-133404104D01*
X53329740Y-133350448D01*
X53319636Y-133280174D01*
X53349130Y-133215594D01*
X53357741Y-133207352D01*
X53357577Y-133207189D01*
X53477281Y-133087277D01*
X53486293Y-133075866D01*
X53571358Y-132937863D01*
X53577505Y-132924682D01*
X53628680Y-132770396D01*
X53631547Y-132757020D01*
X53641214Y-132662668D01*
X53641542Y-132656252D01*
X53641542Y-132652221D01*
X53637067Y-132636982D01*
X53635677Y-132635777D01*
X53627994Y-132634106D01*
X52373042Y-132634106D01*
X52304921Y-132614104D01*
X52258428Y-132560448D01*
X52247042Y-132508106D01*
X52247042Y-131921960D01*
X55333688Y-131921960D01*
X55335324Y-131930781D01*
X55347563Y-131934106D01*
X56010427Y-131934106D01*
X56025666Y-131929631D01*
X56026871Y-131928241D01*
X56028542Y-131920558D01*
X56028542Y-131915991D01*
X57028542Y-131915991D01*
X57033017Y-131931230D01*
X57034407Y-131932435D01*
X57042090Y-131934106D01*
X57708088Y-131934106D01*
X57722406Y-131929902D01*
X57723614Y-131922529D01*
X57723394Y-131921507D01*
X57671954Y-131767322D01*
X57665781Y-131754144D01*
X57580479Y-131616299D01*
X57571443Y-131604898D01*
X57456713Y-131490367D01*
X57445302Y-131481355D01*
X57307299Y-131396290D01*
X57294118Y-131390143D01*
X57139832Y-131338968D01*
X57126456Y-131336101D01*
X57042065Y-131327454D01*
X57031418Y-131330581D01*
X57030213Y-131331971D01*
X57028542Y-131339654D01*
X57028542Y-131915991D01*
X56028542Y-131915991D01*
X56028542Y-131344222D01*
X56024067Y-131328983D01*
X56022677Y-131327778D01*
X56019252Y-131327033D01*
X55929336Y-131336363D01*
X55915942Y-131339255D01*
X55761758Y-131390694D01*
X55748580Y-131396867D01*
X55610735Y-131482169D01*
X55599334Y-131491205D01*
X55484803Y-131605935D01*
X55475791Y-131617346D01*
X55390726Y-131755349D01*
X55384579Y-131768530D01*
X55333688Y-131921960D01*
X52247042Y-131921960D01*
X52247042Y-131615991D01*
X53046042Y-131615991D01*
X53050517Y-131631230D01*
X53051907Y-131632435D01*
X53059590Y-131634106D01*
X53623426Y-131634106D01*
X53638665Y-131629631D01*
X53639870Y-131628241D01*
X53641541Y-131620558D01*
X53641541Y-131612011D01*
X53641204Y-131605492D01*
X53631285Y-131509900D01*
X53628393Y-131496506D01*
X53576954Y-131342322D01*
X53570781Y-131329144D01*
X53485479Y-131191299D01*
X53476443Y-131179898D01*
X53361713Y-131065367D01*
X53350302Y-131056355D01*
X53212297Y-130971288D01*
X53199119Y-130965144D01*
X53063236Y-130920073D01*
X53049143Y-130919584D01*
X53046042Y-130925796D01*
X53046042Y-131615991D01*
X52247042Y-131615991D01*
X52247042Y-131052850D01*
X52267044Y-130984729D01*
X52271106Y-130978789D01*
X52273163Y-130975958D01*
X52277582Y-130971050D01*
X52280992Y-130965144D01*
X52369765Y-130811385D01*
X52369766Y-130811384D01*
X52373069Y-130805662D01*
X52432084Y-130624034D01*
X52452046Y-130434106D01*
X52432084Y-130244178D01*
X52373069Y-130062550D01*
X52352909Y-130027631D01*
X52280883Y-129902880D01*
X52277582Y-129897162D01*
X52207796Y-129819656D01*
X52154217Y-129760151D01*
X52154216Y-129760150D01*
X52149795Y-129755240D01*
X52126756Y-129738501D01*
X52083402Y-129682278D01*
X52077327Y-129611542D01*
X52099893Y-129568775D01*
X60840543Y-129568775D01*
X60840913Y-129575596D01*
X60846437Y-129626458D01*
X60850063Y-129641710D01*
X60895218Y-129762160D01*
X60903756Y-129777755D01*
X60980257Y-129879830D01*
X60992818Y-129892391D01*
X61094893Y-129968892D01*
X61110488Y-129977430D01*
X61230936Y-130022584D01*
X61246191Y-130026211D01*
X61297056Y-130031737D01*
X61303870Y-130032106D01*
X67830427Y-130032106D01*
X67845666Y-130027631D01*
X67846871Y-130026241D01*
X67848542Y-130018558D01*
X67848542Y-130013990D01*
X68848542Y-130013990D01*
X68853017Y-130029229D01*
X68854407Y-130030434D01*
X68862090Y-130032105D01*
X75393211Y-130032105D01*
X75400032Y-130031735D01*
X75450894Y-130026211D01*
X75466146Y-130022585D01*
X75586596Y-129977430D01*
X75602191Y-129968892D01*
X75704266Y-129892391D01*
X75716827Y-129879830D01*
X75793328Y-129777755D01*
X75801866Y-129762160D01*
X75847020Y-129641712D01*
X75850647Y-129626457D01*
X75856173Y-129575592D01*
X75856542Y-129568778D01*
X75856542Y-127542221D01*
X75852067Y-127526982D01*
X75850677Y-127525777D01*
X75842994Y-127524106D01*
X68866657Y-127524106D01*
X68851418Y-127528581D01*
X68850213Y-127529971D01*
X68848542Y-127537654D01*
X68848542Y-130013990D01*
X67848542Y-130013990D01*
X67848542Y-127542221D01*
X67844067Y-127526982D01*
X67842677Y-127525777D01*
X67834994Y-127524106D01*
X60858658Y-127524106D01*
X60843419Y-127528581D01*
X60842214Y-127529971D01*
X60840543Y-127537654D01*
X60840543Y-129568775D01*
X52099893Y-129568775D01*
X52110459Y-129548750D01*
X52165320Y-129515668D01*
X52175667Y-129512630D01*
X52176871Y-129511241D01*
X52178542Y-129503558D01*
X52178542Y-129498990D01*
X53178542Y-129498990D01*
X53183017Y-129514229D01*
X53184407Y-129515434D01*
X53192090Y-129517105D01*
X54998211Y-129517105D01*
X55005032Y-129516735D01*
X55055894Y-129511211D01*
X55071146Y-129507585D01*
X55191596Y-129462430D01*
X55207191Y-129453892D01*
X55309266Y-129377391D01*
X55321827Y-129364830D01*
X55398328Y-129262755D01*
X55406866Y-129247160D01*
X55452020Y-129126712D01*
X55455647Y-129111457D01*
X55461173Y-129060592D01*
X55461542Y-129053778D01*
X55461542Y-127322221D01*
X55457067Y-127306982D01*
X55455677Y-127305777D01*
X55447994Y-127304106D01*
X53196657Y-127304106D01*
X53181418Y-127308581D01*
X53180213Y-127309971D01*
X53178542Y-127317654D01*
X53178542Y-129498990D01*
X52178542Y-129498990D01*
X52178542Y-126505991D01*
X60840542Y-126505991D01*
X60845017Y-126521230D01*
X60846407Y-126522435D01*
X60854090Y-126524106D01*
X67830427Y-126524106D01*
X67845666Y-126519631D01*
X67846871Y-126518241D01*
X67848542Y-126510558D01*
X67848542Y-126505991D01*
X68848542Y-126505991D01*
X68853017Y-126521230D01*
X68854407Y-126522435D01*
X68862090Y-126524106D01*
X75838426Y-126524106D01*
X75853665Y-126519631D01*
X75854870Y-126518241D01*
X75856541Y-126510558D01*
X75856541Y-124479437D01*
X75856171Y-124472616D01*
X75850647Y-124421754D01*
X75847021Y-124406502D01*
X75801866Y-124286052D01*
X75793328Y-124270457D01*
X75716827Y-124168382D01*
X75704266Y-124155821D01*
X75602191Y-124079320D01*
X75586596Y-124070782D01*
X75466148Y-124025628D01*
X75450893Y-124022001D01*
X75400028Y-124016475D01*
X75393214Y-124016106D01*
X68866657Y-124016106D01*
X68851418Y-124020581D01*
X68850213Y-124021971D01*
X68848542Y-124029654D01*
X68848542Y-126505991D01*
X67848542Y-126505991D01*
X67848542Y-124034222D01*
X67844067Y-124018983D01*
X67842677Y-124017778D01*
X67834994Y-124016107D01*
X61303873Y-124016107D01*
X61297052Y-124016477D01*
X61246190Y-124022001D01*
X61230938Y-124025627D01*
X61110488Y-124070782D01*
X61094893Y-124079320D01*
X60992818Y-124155821D01*
X60980257Y-124168382D01*
X60903756Y-124270457D01*
X60895218Y-124286052D01*
X60850064Y-124406500D01*
X60846437Y-124421755D01*
X60840911Y-124472620D01*
X60840542Y-124479434D01*
X60840542Y-126505991D01*
X52178542Y-126505991D01*
X52178542Y-126285991D01*
X53178542Y-126285991D01*
X53183017Y-126301230D01*
X53184407Y-126302435D01*
X53192090Y-126304106D01*
X55443426Y-126304106D01*
X55458665Y-126299631D01*
X55459870Y-126298241D01*
X55461541Y-126290558D01*
X55461541Y-124554437D01*
X55461171Y-124547616D01*
X55455647Y-124496754D01*
X55452021Y-124481502D01*
X55406866Y-124361052D01*
X55398328Y-124345457D01*
X55321827Y-124243382D01*
X55309266Y-124230821D01*
X55207191Y-124154320D01*
X55191596Y-124145782D01*
X55071148Y-124100628D01*
X55055893Y-124097001D01*
X55005028Y-124091475D01*
X54998214Y-124091106D01*
X53196657Y-124091106D01*
X53181418Y-124095581D01*
X53180213Y-124096971D01*
X53178542Y-124104654D01*
X53178542Y-126285991D01*
X52178542Y-126285991D01*
X52178542Y-124109222D01*
X52174067Y-124093983D01*
X52172677Y-124092778D01*
X52164994Y-124091107D01*
X50358873Y-124091107D01*
X50352052Y-124091477D01*
X50301190Y-124097001D01*
X50285939Y-124100627D01*
X50238772Y-124118309D01*
X50167965Y-124123492D01*
X50105596Y-124089571D01*
X50071466Y-124027316D01*
X50068542Y-124000327D01*
X50068542Y-122070106D01*
X50088544Y-122001985D01*
X50142200Y-121955492D01*
X50194542Y-121944106D01*
X53888542Y-121944106D01*
X53888542Y-118651634D01*
X53908544Y-118583513D01*
X53962200Y-118537020D01*
X54032474Y-118526916D01*
X54058772Y-118533652D01*
X54095936Y-118547584D01*
X54111191Y-118551211D01*
X54162056Y-118556737D01*
X54168870Y-118557106D01*
X54370427Y-118557106D01*
X54385666Y-118552631D01*
X54386871Y-118551241D01*
X54388542Y-118543558D01*
X54388542Y-118538990D01*
X54888542Y-118538990D01*
X54893017Y-118554229D01*
X54894407Y-118555434D01*
X54902090Y-118557105D01*
X55108211Y-118557105D01*
X55115032Y-118556735D01*
X55165894Y-118551211D01*
X55181146Y-118547585D01*
X55301596Y-118502430D01*
X55317191Y-118493892D01*
X55419266Y-118417391D01*
X55431827Y-118404830D01*
X55508328Y-118302755D01*
X55516866Y-118287160D01*
X55562020Y-118166712D01*
X55565647Y-118151457D01*
X55571173Y-118100592D01*
X55571542Y-118093778D01*
X55571542Y-118067221D01*
X55567067Y-118051982D01*
X55565677Y-118050777D01*
X55557994Y-118049106D01*
X54906657Y-118049106D01*
X54891418Y-118053581D01*
X54890213Y-118054971D01*
X54888542Y-118062654D01*
X54888542Y-118538990D01*
X54388542Y-118538990D01*
X54388542Y-117530991D01*
X54888542Y-117530991D01*
X54893017Y-117546230D01*
X54894407Y-117547435D01*
X54902090Y-117549106D01*
X55553426Y-117549106D01*
X55568665Y-117544631D01*
X55569870Y-117543241D01*
X55571541Y-117535558D01*
X55571541Y-117504437D01*
X55571171Y-117497616D01*
X55565647Y-117446754D01*
X55562021Y-117431502D01*
X55516866Y-117311052D01*
X55508329Y-117295458D01*
X55466518Y-117239670D01*
X55441671Y-117173164D01*
X55456724Y-117103781D01*
X55466518Y-117088542D01*
X55508329Y-117032754D01*
X55516866Y-117017160D01*
X55562020Y-116896712D01*
X55565647Y-116881457D01*
X55571173Y-116830592D01*
X55571542Y-116823778D01*
X55571542Y-116797221D01*
X55567067Y-116781982D01*
X55565677Y-116780777D01*
X55557994Y-116779106D01*
X54906657Y-116779106D01*
X54891418Y-116783581D01*
X54890213Y-116784971D01*
X54888542Y-116792654D01*
X54888542Y-117530991D01*
X54388542Y-117530991D01*
X54388542Y-116260991D01*
X54888542Y-116260991D01*
X54893017Y-116276230D01*
X54894407Y-116277435D01*
X54902090Y-116279106D01*
X55553426Y-116279106D01*
X55568665Y-116274631D01*
X55569870Y-116273241D01*
X55571541Y-116265558D01*
X55571541Y-116234437D01*
X55571171Y-116227616D01*
X55565647Y-116176754D01*
X55562021Y-116161502D01*
X55516866Y-116041052D01*
X55508329Y-116025458D01*
X55466518Y-115969670D01*
X55441671Y-115903164D01*
X55456724Y-115833781D01*
X55466518Y-115818542D01*
X55508329Y-115762754D01*
X55516866Y-115747160D01*
X55562020Y-115626712D01*
X55565647Y-115611457D01*
X55571173Y-115560592D01*
X55571542Y-115553778D01*
X55571542Y-115527221D01*
X55567067Y-115511982D01*
X55565677Y-115510777D01*
X55557994Y-115509106D01*
X54906657Y-115509106D01*
X54891418Y-115513581D01*
X54890213Y-115514971D01*
X54888542Y-115522654D01*
X54888542Y-116260991D01*
X54388542Y-116260991D01*
X54388542Y-115135106D01*
X54408544Y-115066985D01*
X54462200Y-115020492D01*
X54514542Y-115009106D01*
X55553426Y-115009106D01*
X55568665Y-115004631D01*
X55569870Y-115003241D01*
X55571541Y-114995558D01*
X55571541Y-114980106D01*
X55591543Y-114911985D01*
X55645199Y-114865492D01*
X55697541Y-114854106D01*
X55901466Y-114854106D01*
X55940329Y-114860262D01*
G37*
G04 #@! TD.AperFunction*
G04 #@! TA.AperFunction,Conductor*
G36*
X58468542Y-147318106D02*
G01*
X58448540Y-147386227D01*
X58394884Y-147432720D01*
X58342542Y-147444106D01*
X57505665Y-147444106D01*
X57437544Y-147424104D01*
X57391051Y-147370448D01*
X57380947Y-147300174D01*
X57398404Y-147251991D01*
X57416359Y-147222861D01*
X57422505Y-147209682D01*
X57473680Y-147055396D01*
X57476547Y-147042020D01*
X57485194Y-146957629D01*
X57482067Y-146946982D01*
X57480677Y-146945777D01*
X57472994Y-146944106D01*
X56004542Y-146944106D01*
X55936421Y-146924104D01*
X55889928Y-146870448D01*
X55878542Y-146818106D01*
X55878542Y-145925991D01*
X56878542Y-145925991D01*
X56883017Y-145941230D01*
X56884407Y-145942435D01*
X56892090Y-145944106D01*
X57468426Y-145944106D01*
X57483665Y-145939631D01*
X57484870Y-145938241D01*
X57485615Y-145934816D01*
X57476285Y-145844900D01*
X57473393Y-145831506D01*
X57421954Y-145677322D01*
X57415781Y-145664144D01*
X57330479Y-145526299D01*
X57321443Y-145514898D01*
X57206713Y-145400367D01*
X57195299Y-145391353D01*
X57188995Y-145387467D01*
X57141501Y-145334696D01*
X57130077Y-145264624D01*
X57158350Y-145199500D01*
X57188807Y-145173063D01*
X57321349Y-145091043D01*
X57332750Y-145082007D01*
X57447281Y-144967277D01*
X57456293Y-144955866D01*
X57541358Y-144817863D01*
X57547505Y-144804682D01*
X57598680Y-144650396D01*
X57601547Y-144637020D01*
X57611214Y-144542668D01*
X57611542Y-144536252D01*
X57611542Y-144532221D01*
X57607067Y-144516982D01*
X57605677Y-144515777D01*
X57597994Y-144514106D01*
X57034157Y-144514106D01*
X57018918Y-144518581D01*
X57017713Y-144519971D01*
X57016042Y-144527654D01*
X57016042Y-145161106D01*
X56996040Y-145229227D01*
X56942384Y-145275720D01*
X56914008Y-145281893D01*
X56914040Y-145282002D01*
X56881418Y-145291581D01*
X56880213Y-145292971D01*
X56878542Y-145300654D01*
X56878542Y-145925991D01*
X55878542Y-145925991D01*
X55878542Y-145322106D01*
X55898544Y-145253985D01*
X55952200Y-145207492D01*
X55980576Y-145201319D01*
X55980544Y-145201210D01*
X56013166Y-145191631D01*
X56014371Y-145190241D01*
X56016042Y-145182558D01*
X56016042Y-143495991D01*
X57016042Y-143495991D01*
X57020517Y-143511230D01*
X57021907Y-143512435D01*
X57029590Y-143514106D01*
X57593426Y-143514106D01*
X57608665Y-143509631D01*
X57609870Y-143508241D01*
X57611541Y-143500558D01*
X57611541Y-143492011D01*
X57611204Y-143485492D01*
X57601285Y-143389900D01*
X57598393Y-143376506D01*
X57546954Y-143222322D01*
X57540781Y-143209144D01*
X57455479Y-143071299D01*
X57446443Y-143059898D01*
X57331713Y-142945367D01*
X57320302Y-142936355D01*
X57182297Y-142851288D01*
X57169119Y-142845144D01*
X57033236Y-142800073D01*
X57019143Y-142799584D01*
X57016042Y-142805796D01*
X57016042Y-143495991D01*
X56016042Y-143495991D01*
X56016042Y-142812337D01*
X56012069Y-142798806D01*
X56005243Y-142797825D01*
X55861753Y-142845696D01*
X55848585Y-142851864D01*
X55730845Y-142924724D01*
X55662393Y-142943562D01*
X55594623Y-142922401D01*
X55549052Y-142867960D01*
X55538542Y-142817580D01*
X55538542Y-142181905D01*
X55555422Y-142118906D01*
X55563069Y-142105662D01*
X55622084Y-141924034D01*
X55642046Y-141734106D01*
X55622084Y-141544178D01*
X55563069Y-141362550D01*
X55555422Y-141349306D01*
X55538542Y-141286307D01*
X55538542Y-139474106D01*
X58468542Y-139474106D01*
X58468542Y-147318106D01*
G37*
G04 #@! TD.AperFunction*
G04 #@! TA.AperFunction,Conductor*
G36*
X53002045Y-111698502D02*
G01*
X53048538Y-111752158D01*
X53059924Y-111804519D01*
X53059735Y-113055125D01*
X53039723Y-113123243D01*
X52986060Y-113169728D01*
X52933735Y-113181106D01*
X51206657Y-113181106D01*
X51191418Y-113185581D01*
X51190213Y-113186971D01*
X51188542Y-113194654D01*
X51188542Y-118588990D01*
X51193017Y-118604229D01*
X51194407Y-118605434D01*
X51202090Y-118607105D01*
X52932877Y-118607105D01*
X53000998Y-118627107D01*
X53047491Y-118680763D01*
X53058877Y-118733124D01*
X53058561Y-120828230D01*
X53038549Y-120896348D01*
X52984886Y-120942833D01*
X52932667Y-120954211D01*
X17464604Y-120983735D01*
X17396468Y-120963790D01*
X17349930Y-120910173D01*
X17338500Y-120857735D01*
X17338500Y-119263775D01*
X21680543Y-119263775D01*
X21680913Y-119270596D01*
X21686437Y-119321458D01*
X21690063Y-119336710D01*
X21735218Y-119457160D01*
X21743756Y-119472755D01*
X21820257Y-119574830D01*
X21832818Y-119587391D01*
X21934893Y-119663892D01*
X21950488Y-119672430D01*
X22070936Y-119717584D01*
X22086191Y-119721211D01*
X22137056Y-119726737D01*
X22143870Y-119727106D01*
X22300427Y-119727106D01*
X22315666Y-119722631D01*
X22316871Y-119721241D01*
X22318542Y-119713558D01*
X22318542Y-119708990D01*
X23318542Y-119708990D01*
X23323017Y-119724229D01*
X23324407Y-119725434D01*
X23332090Y-119727105D01*
X23493211Y-119727105D01*
X23500032Y-119726735D01*
X23550894Y-119721211D01*
X23566146Y-119717585D01*
X23686596Y-119672430D01*
X23702191Y-119663892D01*
X23804266Y-119587391D01*
X23816827Y-119574830D01*
X23893328Y-119472755D01*
X23901866Y-119457160D01*
X23947020Y-119336712D01*
X23950647Y-119321457D01*
X23956173Y-119270592D01*
X23956542Y-119263778D01*
X23956542Y-119238775D01*
X30820543Y-119238775D01*
X30820913Y-119245596D01*
X30826437Y-119296458D01*
X30830063Y-119311710D01*
X30875218Y-119432160D01*
X30883756Y-119447755D01*
X30960257Y-119549830D01*
X30972818Y-119562391D01*
X31074893Y-119638892D01*
X31090488Y-119647430D01*
X31210936Y-119692584D01*
X31226191Y-119696211D01*
X31277056Y-119701737D01*
X31283870Y-119702106D01*
X31440427Y-119702106D01*
X31455666Y-119697631D01*
X31456871Y-119696241D01*
X31458542Y-119688558D01*
X31458542Y-119683990D01*
X32458542Y-119683990D01*
X32463017Y-119699229D01*
X32464407Y-119700434D01*
X32472090Y-119702105D01*
X32633211Y-119702105D01*
X32640032Y-119701735D01*
X32690894Y-119696211D01*
X32706146Y-119692585D01*
X32826596Y-119647430D01*
X32842191Y-119638892D01*
X32944266Y-119562391D01*
X32956827Y-119549830D01*
X33033328Y-119447755D01*
X33041866Y-119432160D01*
X33087020Y-119311712D01*
X33090647Y-119296457D01*
X33096173Y-119245592D01*
X33096542Y-119238778D01*
X33096542Y-119198775D01*
X39930543Y-119198775D01*
X39930913Y-119205596D01*
X39936437Y-119256458D01*
X39940063Y-119271710D01*
X39985218Y-119392160D01*
X39993756Y-119407755D01*
X40070257Y-119509830D01*
X40082818Y-119522391D01*
X40184893Y-119598892D01*
X40200488Y-119607430D01*
X40320936Y-119652584D01*
X40336191Y-119656211D01*
X40387056Y-119661737D01*
X40393870Y-119662106D01*
X40550427Y-119662106D01*
X40565666Y-119657631D01*
X40566871Y-119656241D01*
X40568542Y-119648558D01*
X40568542Y-119643990D01*
X41568542Y-119643990D01*
X41573017Y-119659229D01*
X41574407Y-119660434D01*
X41582090Y-119662105D01*
X41743211Y-119662105D01*
X41750032Y-119661735D01*
X41800894Y-119656211D01*
X41816146Y-119652585D01*
X41936596Y-119607430D01*
X41952191Y-119598892D01*
X42054266Y-119522391D01*
X42066827Y-119509830D01*
X42143328Y-119407755D01*
X42151866Y-119392160D01*
X42197020Y-119271712D01*
X42200647Y-119256457D01*
X42206173Y-119205592D01*
X42206542Y-119198778D01*
X42206542Y-118143775D01*
X47905543Y-118143775D01*
X47905913Y-118150596D01*
X47911437Y-118201458D01*
X47915063Y-118216710D01*
X47960218Y-118337160D01*
X47968756Y-118352755D01*
X48045257Y-118454830D01*
X48057818Y-118467391D01*
X48159893Y-118543892D01*
X48175488Y-118552430D01*
X48295936Y-118597584D01*
X48311191Y-118601211D01*
X48362056Y-118606737D01*
X48368870Y-118607106D01*
X50170427Y-118607106D01*
X50185666Y-118602631D01*
X50186871Y-118601241D01*
X50188542Y-118593558D01*
X50188542Y-116412221D01*
X50184067Y-116396982D01*
X50182677Y-116395777D01*
X50174994Y-116394106D01*
X47923658Y-116394106D01*
X47908419Y-116398581D01*
X47907214Y-116399971D01*
X47905543Y-116407654D01*
X47905543Y-118143775D01*
X42206542Y-118143775D01*
X42206542Y-117867221D01*
X42202067Y-117851982D01*
X42200677Y-117850777D01*
X42192994Y-117849106D01*
X41586657Y-117849106D01*
X41571418Y-117853581D01*
X41570213Y-117854971D01*
X41568542Y-117862654D01*
X41568542Y-119643990D01*
X40568542Y-119643990D01*
X40568542Y-117867221D01*
X40564067Y-117851982D01*
X40562677Y-117850777D01*
X40554994Y-117849106D01*
X39948658Y-117849106D01*
X39933419Y-117853581D01*
X39932214Y-117854971D01*
X39930543Y-117862654D01*
X39930543Y-119198775D01*
X33096542Y-119198775D01*
X33096542Y-117907221D01*
X33092067Y-117891982D01*
X33090677Y-117890777D01*
X33082994Y-117889106D01*
X32476657Y-117889106D01*
X32461418Y-117893581D01*
X32460213Y-117894971D01*
X32458542Y-117902654D01*
X32458542Y-119683990D01*
X31458542Y-119683990D01*
X31458542Y-117907221D01*
X31454067Y-117891982D01*
X31452677Y-117890777D01*
X31444994Y-117889106D01*
X30838658Y-117889106D01*
X30823419Y-117893581D01*
X30822214Y-117894971D01*
X30820543Y-117902654D01*
X30820543Y-119238775D01*
X23956542Y-119238775D01*
X23956542Y-117932221D01*
X23952067Y-117916982D01*
X23950677Y-117915777D01*
X23942994Y-117914106D01*
X23336657Y-117914106D01*
X23321418Y-117918581D01*
X23320213Y-117919971D01*
X23318542Y-117927654D01*
X23318542Y-119708990D01*
X22318542Y-119708990D01*
X22318542Y-117932221D01*
X22314067Y-117916982D01*
X22312677Y-117915777D01*
X22304994Y-117914106D01*
X21698658Y-117914106D01*
X21683419Y-117918581D01*
X21682214Y-117919971D01*
X21680543Y-117927654D01*
X21680543Y-119263775D01*
X17338500Y-119263775D01*
X17338500Y-116895991D01*
X21680542Y-116895991D01*
X21685017Y-116911230D01*
X21686407Y-116912435D01*
X21694090Y-116914106D01*
X22300427Y-116914106D01*
X22315666Y-116909631D01*
X22316871Y-116908241D01*
X22318542Y-116900558D01*
X22318542Y-116895991D01*
X23318542Y-116895991D01*
X23323017Y-116911230D01*
X23324407Y-116912435D01*
X23332090Y-116914106D01*
X23938426Y-116914106D01*
X23953665Y-116909631D01*
X23954870Y-116908241D01*
X23956541Y-116900558D01*
X23956541Y-116870991D01*
X30820542Y-116870991D01*
X30825017Y-116886230D01*
X30826407Y-116887435D01*
X30834090Y-116889106D01*
X31440427Y-116889106D01*
X31455666Y-116884631D01*
X31456871Y-116883241D01*
X31458542Y-116875558D01*
X31458542Y-116870991D01*
X32458542Y-116870991D01*
X32463017Y-116886230D01*
X32464407Y-116887435D01*
X32472090Y-116889106D01*
X33078426Y-116889106D01*
X33093665Y-116884631D01*
X33094870Y-116883241D01*
X33096541Y-116875558D01*
X33096541Y-116830991D01*
X39930542Y-116830991D01*
X39935017Y-116846230D01*
X39936407Y-116847435D01*
X39944090Y-116849106D01*
X40550427Y-116849106D01*
X40565666Y-116844631D01*
X40566871Y-116843241D01*
X40568542Y-116835558D01*
X40568542Y-116830991D01*
X41568542Y-116830991D01*
X41573017Y-116846230D01*
X41574407Y-116847435D01*
X41582090Y-116849106D01*
X42188426Y-116849106D01*
X42203665Y-116844631D01*
X42204870Y-116843241D01*
X42206541Y-116835558D01*
X42206541Y-115499437D01*
X42206171Y-115492616D01*
X42200647Y-115441754D01*
X42197021Y-115426502D01*
X42178085Y-115375991D01*
X47905542Y-115375991D01*
X47910017Y-115391230D01*
X47911407Y-115392435D01*
X47919090Y-115394106D01*
X50170427Y-115394106D01*
X50185666Y-115389631D01*
X50186871Y-115388241D01*
X50188542Y-115380558D01*
X50188542Y-113199222D01*
X50184067Y-113183983D01*
X50182677Y-113182778D01*
X50174994Y-113181107D01*
X48368873Y-113181107D01*
X48362052Y-113181477D01*
X48311190Y-113187001D01*
X48295938Y-113190627D01*
X48175488Y-113235782D01*
X48159893Y-113244320D01*
X48057818Y-113320821D01*
X48045257Y-113333382D01*
X47968756Y-113435457D01*
X47960218Y-113451052D01*
X47915064Y-113571500D01*
X47911437Y-113586755D01*
X47905911Y-113637620D01*
X47905542Y-113644434D01*
X47905542Y-115375991D01*
X42178085Y-115375991D01*
X42151866Y-115306052D01*
X42143328Y-115290457D01*
X42066827Y-115188382D01*
X42054266Y-115175821D01*
X41952191Y-115099320D01*
X41936596Y-115090782D01*
X41816148Y-115045628D01*
X41800893Y-115042001D01*
X41750028Y-115036475D01*
X41743214Y-115036106D01*
X41586657Y-115036106D01*
X41571418Y-115040581D01*
X41570213Y-115041971D01*
X41568542Y-115049654D01*
X41568542Y-116830991D01*
X40568542Y-116830991D01*
X40568542Y-115054222D01*
X40564067Y-115038983D01*
X40562677Y-115037778D01*
X40554994Y-115036107D01*
X40393873Y-115036107D01*
X40387052Y-115036477D01*
X40336190Y-115042001D01*
X40320938Y-115045627D01*
X40200488Y-115090782D01*
X40184893Y-115099320D01*
X40082818Y-115175821D01*
X40070257Y-115188382D01*
X39993756Y-115290457D01*
X39985218Y-115306052D01*
X39940064Y-115426500D01*
X39936437Y-115441755D01*
X39930911Y-115492620D01*
X39930542Y-115499434D01*
X39930542Y-116830991D01*
X33096541Y-116830991D01*
X33096541Y-115539437D01*
X33096171Y-115532616D01*
X33090647Y-115481754D01*
X33087021Y-115466502D01*
X33041866Y-115346052D01*
X33033328Y-115330457D01*
X32956827Y-115228382D01*
X32944266Y-115215821D01*
X32842191Y-115139320D01*
X32826596Y-115130782D01*
X32706148Y-115085628D01*
X32690893Y-115082001D01*
X32640028Y-115076475D01*
X32633214Y-115076106D01*
X32476657Y-115076106D01*
X32461418Y-115080581D01*
X32460213Y-115081971D01*
X32458542Y-115089654D01*
X32458542Y-116870991D01*
X31458542Y-116870991D01*
X31458542Y-115094222D01*
X31454067Y-115078983D01*
X31452677Y-115077778D01*
X31444994Y-115076107D01*
X31283873Y-115076107D01*
X31277052Y-115076477D01*
X31226190Y-115082001D01*
X31210938Y-115085627D01*
X31090488Y-115130782D01*
X31074893Y-115139320D01*
X30972818Y-115215821D01*
X30960257Y-115228382D01*
X30883756Y-115330457D01*
X30875218Y-115346052D01*
X30830064Y-115466500D01*
X30826437Y-115481755D01*
X30820911Y-115532620D01*
X30820542Y-115539434D01*
X30820542Y-116870991D01*
X23956541Y-116870991D01*
X23956541Y-115564437D01*
X23956171Y-115557616D01*
X23950647Y-115506754D01*
X23947021Y-115491502D01*
X23901866Y-115371052D01*
X23893328Y-115355457D01*
X23816827Y-115253382D01*
X23804266Y-115240821D01*
X23702191Y-115164320D01*
X23686596Y-115155782D01*
X23566148Y-115110628D01*
X23550893Y-115107001D01*
X23500028Y-115101475D01*
X23493214Y-115101106D01*
X23336657Y-115101106D01*
X23321418Y-115105581D01*
X23320213Y-115106971D01*
X23318542Y-115114654D01*
X23318542Y-116895991D01*
X22318542Y-116895991D01*
X22318542Y-115119222D01*
X22314067Y-115103983D01*
X22312677Y-115102778D01*
X22304994Y-115101107D01*
X22143873Y-115101107D01*
X22137052Y-115101477D01*
X22086190Y-115107001D01*
X22070938Y-115110627D01*
X21950488Y-115155782D01*
X21934893Y-115164320D01*
X21832818Y-115240821D01*
X21820257Y-115253382D01*
X21743756Y-115355457D01*
X21735218Y-115371052D01*
X21690064Y-115491500D01*
X21686437Y-115506755D01*
X21680911Y-115557620D01*
X21680542Y-115564434D01*
X21680542Y-116895991D01*
X17338500Y-116895991D01*
X17338500Y-111804500D01*
X17358502Y-111736379D01*
X17412158Y-111689886D01*
X17464500Y-111678500D01*
X52933924Y-111678500D01*
X53002045Y-111698502D01*
G37*
G04 #@! TD.AperFunction*
G04 #@! TA.AperFunction,Conductor*
G36*
X77293621Y-136054108D02*
G01*
X77340114Y-136107764D01*
X77351500Y-136160106D01*
X77351500Y-163258106D01*
X77331498Y-163326227D01*
X77277842Y-163372720D01*
X77225500Y-163384106D01*
X17464500Y-163384106D01*
X17396379Y-163364104D01*
X17349886Y-163310448D01*
X17338500Y-163258106D01*
X17338500Y-156410106D01*
X17358502Y-156341985D01*
X17412158Y-156295492D01*
X17464500Y-156284106D01*
X52817900Y-156284106D01*
X57055285Y-152629937D01*
X57119934Y-152600598D01*
X57135834Y-152599370D01*
X58447744Y-152581349D01*
X59100427Y-152572383D01*
X59100428Y-152572383D01*
X59118542Y-152572134D01*
X59118542Y-136160106D01*
X59138544Y-136091985D01*
X59192200Y-136045492D01*
X59244542Y-136034106D01*
X77225500Y-136034106D01*
X77293621Y-136054108D01*
G37*
G04 #@! TD.AperFunction*
G04 #@! TA.AperFunction,Conductor*
G36*
X77293621Y-111698502D02*
G01*
X77340114Y-111752158D01*
X77351500Y-111804500D01*
X77351500Y-114148106D01*
X77331498Y-114216227D01*
X77277842Y-114262720D01*
X77225500Y-114274106D01*
X57252554Y-114274106D01*
X57184433Y-114254104D01*
X57137940Y-114200448D01*
X57127244Y-114134935D01*
X57141356Y-114000670D01*
X57142046Y-113994106D01*
X57122084Y-113804178D01*
X57063069Y-113622550D01*
X56967582Y-113457162D01*
X56839795Y-113315240D01*
X56685294Y-113202988D01*
X56679266Y-113200304D01*
X56679264Y-113200303D01*
X56516861Y-113127997D01*
X56516860Y-113127997D01*
X56510830Y-113125312D01*
X56417430Y-113105459D01*
X56330486Y-113086978D01*
X56330481Y-113086978D01*
X56324029Y-113085606D01*
X56133055Y-113085606D01*
X56126603Y-113086978D01*
X56126598Y-113086978D01*
X56039655Y-113105459D01*
X55946254Y-113125312D01*
X55940224Y-113127997D01*
X55940223Y-113127997D01*
X55777820Y-113200303D01*
X55777818Y-113200304D01*
X55771790Y-113202988D01*
X55766449Y-113206868D01*
X55766448Y-113206869D01*
X55698079Y-113256542D01*
X55624018Y-113280606D01*
X55312055Y-113280606D01*
X55267826Y-113272588D01*
X55181253Y-113240133D01*
X55181251Y-113240133D01*
X55173858Y-113237361D01*
X55166010Y-113236508D01*
X55166008Y-113236508D01*
X55115073Y-113230975D01*
X55111676Y-113230606D01*
X54165408Y-113230606D01*
X54103226Y-113237361D01*
X54052061Y-113256542D01*
X54048772Y-113257775D01*
X53977965Y-113262958D01*
X53915596Y-113229037D01*
X53881466Y-113166782D01*
X53878542Y-113139793D01*
X53878542Y-111804500D01*
X53898544Y-111736379D01*
X53952200Y-111689886D01*
X54004542Y-111678500D01*
X77225500Y-111678500D01*
X77293621Y-111698502D01*
G37*
G04 #@! TD.AperFunction*
M02*
