G04 #@! TF.GenerationSoftware,KiCad,Pcbnew,(6.0.9)*
G04 #@! TF.CreationDate,2023-05-15T12:17:08+03:00*
G04 #@! TF.ProjectId,mainboard,6d61696e-626f-4617-9264-2e6b69636164,rev?*
G04 #@! TF.SameCoordinates,Original*
G04 #@! TF.FileFunction,Soldermask,Top*
G04 #@! TF.FilePolarity,Negative*
%FSLAX46Y46*%
G04 Gerber Fmt 4.6, Leading zero omitted, Abs format (unit mm)*
G04 Created by KiCad (PCBNEW (6.0.9)) date 2023-05-15 12:17:08*
%MOMM*%
%LPD*%
G01*
G04 APERTURE LIST*
G04 Aperture macros list*
%AMRoundRect*
0 Rectangle with rounded corners*
0 $1 Rounding radius*
0 $2 $3 $4 $5 $6 $7 $8 $9 X,Y pos of 4 corners*
0 Add a 4 corners polygon primitive as box body*
4,1,4,$2,$3,$4,$5,$6,$7,$8,$9,$2,$3,0*
0 Add four circle primitives for the rounded corners*
1,1,$1+$1,$2,$3*
1,1,$1+$1,$4,$5*
1,1,$1+$1,$6,$7*
1,1,$1+$1,$8,$9*
0 Add four rect primitives between the rounded corners*
20,1,$1+$1,$2,$3,$4,$5,0*
20,1,$1+$1,$4,$5,$6,$7,0*
20,1,$1+$1,$6,$7,$8,$9,0*
20,1,$1+$1,$8,$9,$2,$3,0*%
%AMFreePoly0*
4,1,17,2.675000,1.605000,1.875000,1.605000,1.875000,0.935000,2.675000,0.935000,2.675000,0.335000,1.875000,0.335000,1.875000,-0.335000,2.675000,-0.335000,2.675000,-0.935000,1.875000,-0.935000,1.875000,-1.605000,2.675000,-1.605000,2.675000,-2.205000,-1.875000,-2.205000,-1.875000,2.205000,2.675000,2.205000,2.675000,1.605000,2.675000,1.605000,$1*%
G04 Aperture macros list end*
%ADD10RoundRect,0.250000X0.337500X0.475000X-0.337500X0.475000X-0.337500X-0.475000X0.337500X-0.475000X0*%
%ADD11RoundRect,0.250000X1.100000X-0.412500X1.100000X0.412500X-1.100000X0.412500X-1.100000X-0.412500X0*%
%ADD12R,1.260000X3.610000*%
%ADD13R,1.650000X4.500000*%
%ADD14RoundRect,0.250000X-0.337500X-0.475000X0.337500X-0.475000X0.337500X0.475000X-0.337500X0.475000X0*%
%ADD15RoundRect,0.250000X-0.450000X0.350000X-0.450000X-0.350000X0.450000X-0.350000X0.450000X0.350000X0*%
%ADD16R,3.100000X3.000000*%
%ADD17RoundRect,0.100000X0.100000X-0.687500X0.100000X0.687500X-0.100000X0.687500X-0.100000X-0.687500X0*%
%ADD18FreePoly0,180.000000*%
%ADD19R,0.850000X0.500000*%
%ADD20FreePoly0,0.000000*%
%ADD21RoundRect,0.250000X-0.350000X-0.450000X0.350000X-0.450000X0.350000X0.450000X-0.350000X0.450000X0*%
%ADD22RoundRect,0.250000X0.350000X0.450000X-0.350000X0.450000X-0.350000X-0.450000X0.350000X-0.450000X0*%
%ADD23R,14.000000X5.000000*%
G04 APERTURE END LIST*
D10*
X47846042Y-144124106D03*
X45771042Y-144124106D03*
D11*
X28408542Y-157375000D03*
X28408542Y-154250000D03*
D12*
X41068542Y-117349106D03*
X41068542Y-123939106D03*
D13*
X36658542Y-159814106D03*
X36658542Y-150814106D03*
D14*
X50471042Y-132134106D03*
X52546042Y-132134106D03*
D15*
X56528542Y-132434106D03*
X56528542Y-134434106D03*
D12*
X22818542Y-117414106D03*
X22818542Y-124004106D03*
D15*
X50728542Y-149564106D03*
X50728542Y-151564106D03*
D16*
X51538542Y-138264106D03*
D17*
X49588542Y-141126606D03*
X50238542Y-141126606D03*
X50888542Y-141126606D03*
X51538542Y-141126606D03*
X52188542Y-141126606D03*
X52838542Y-141126606D03*
X53488542Y-141126606D03*
X53488542Y-135401606D03*
X52838542Y-135401606D03*
X52188542Y-135401606D03*
X51538542Y-135401606D03*
X50888542Y-135401606D03*
X50238542Y-135401606D03*
X49588542Y-135401606D03*
D14*
X54441042Y-144014106D03*
X56516042Y-144014106D03*
D12*
X31958542Y-117389106D03*
X31958542Y-123979106D03*
D18*
X51088542Y-115894106D03*
D19*
X54638542Y-117799106D03*
X54638542Y-116529106D03*
X54638542Y-115259106D03*
X54638542Y-113989106D03*
D20*
X52278542Y-126804106D03*
D19*
X48728542Y-124899106D03*
X48728542Y-126169106D03*
X48728542Y-127439106D03*
X48728542Y-128709106D03*
D21*
X54378542Y-146444106D03*
X56378542Y-146444106D03*
D10*
X55766042Y-151624106D03*
X53691042Y-151624106D03*
X47776042Y-146604106D03*
X45701042Y-146604106D03*
D22*
X56228542Y-149144106D03*
X54228542Y-149144106D03*
D23*
X68348542Y-127024106D03*
X68348542Y-143624106D03*
M02*
