G04 #@! TF.GenerationSoftware,KiCad,Pcbnew,(6.0.9)*
G04 #@! TF.CreationDate,2023-05-15T12:17:08+03:00*
G04 #@! TF.ProjectId,mainboard,6d61696e-626f-4617-9264-2e6b69636164,rev?*
G04 #@! TF.SameCoordinates,Original*
G04 #@! TF.FileFunction,Copper,L2,Bot*
G04 #@! TF.FilePolarity,Positive*
%FSLAX46Y46*%
G04 Gerber Fmt 4.6, Leading zero omitted, Abs format (unit mm)*
G04 Created by KiCad (PCBNEW (6.0.9)) date 2023-05-15 12:17:08*
%MOMM*%
%LPD*%
G01*
G04 APERTURE LIST*
G04 #@! TA.AperFunction,ViaPad*
%ADD10C,0.600000*%
G04 #@! TD*
G04 #@! TA.AperFunction,ViaPad*
%ADD11C,1.000000*%
G04 #@! TD*
G04 #@! TA.AperFunction,ViaPad*
%ADD12C,0.800000*%
G04 #@! TD*
G04 #@! TA.AperFunction,Conductor*
%ADD13C,0.600000*%
G04 #@! TD*
G04 #@! TA.AperFunction,Conductor*
%ADD14C,0.400000*%
G04 #@! TD*
G04 APERTURE END LIST*
D10*
X34190000Y-151700000D03*
X46490000Y-124540000D03*
X20460000Y-123450000D03*
X23180000Y-151730000D03*
X18850000Y-124850000D03*
X67470000Y-113300000D03*
X24790000Y-151740000D03*
X37520000Y-123290000D03*
X63390000Y-113270000D03*
X19580000Y-151750000D03*
X41670000Y-153040000D03*
X69700000Y-113310000D03*
X35870000Y-124700000D03*
X39130000Y-124710000D03*
X44930000Y-151640000D03*
X43320000Y-153040000D03*
X28370000Y-123410000D03*
X35870000Y-123290000D03*
X26720000Y-123410000D03*
X34190000Y-153110000D03*
X39130000Y-123300000D03*
X44880000Y-123120000D03*
X51028542Y-137604106D03*
X18850000Y-123440000D03*
X26720000Y-124820000D03*
X33920000Y-124720000D03*
X32580000Y-151690000D03*
X46490000Y-123130000D03*
X33920000Y-123310000D03*
X43320000Y-151630000D03*
X65390000Y-113280000D03*
X52128542Y-137604106D03*
X20460000Y-124860000D03*
X43230000Y-124530000D03*
X61540000Y-113280000D03*
X39720000Y-153060000D03*
X32580000Y-153100000D03*
X21530000Y-151730000D03*
X19580000Y-153160000D03*
X44880000Y-124530000D03*
X23180000Y-153140000D03*
X43230000Y-123120000D03*
X51008542Y-138854106D03*
X41670000Y-151630000D03*
X24790000Y-153150000D03*
X24770000Y-124840000D03*
X39720000Y-151650000D03*
X24770000Y-123430000D03*
X29980000Y-123420000D03*
X29980000Y-124830000D03*
X52118542Y-138844106D03*
X71900000Y-113300000D03*
X44930000Y-153050000D03*
X37520000Y-124700000D03*
X28370000Y-124820000D03*
X21530000Y-153140000D03*
X49628542Y-117364106D03*
X51768542Y-117364106D03*
X47008542Y-119614106D03*
X47028542Y-117434106D03*
X47028542Y-115974106D03*
X49648542Y-114554106D03*
X49598542Y-119594106D03*
X51748542Y-115974106D03*
X49618542Y-115984106D03*
X51748542Y-119584106D03*
D11*
X34238542Y-113424106D03*
D10*
X47048542Y-114534106D03*
D11*
X49158542Y-154764106D03*
D10*
X51748542Y-114534106D03*
D12*
X56228542Y-113994106D03*
X51538542Y-130434106D03*
D10*
X51468542Y-125454106D03*
X51418542Y-128324106D03*
X55988542Y-125494106D03*
X56038542Y-128304106D03*
X53628542Y-123304106D03*
X51468542Y-126884106D03*
X51448542Y-123294106D03*
X53638542Y-128304106D03*
X53628542Y-126894106D03*
X53628542Y-125474106D03*
X56008542Y-126894106D03*
X55988542Y-123264106D03*
D12*
X50708542Y-153404106D03*
X54728542Y-141734106D03*
D13*
X34238542Y-113424106D02*
X35938542Y-111724106D01*
X35938542Y-111724106D02*
X74478542Y-111724106D01*
X56240000Y-141402648D02*
X56240000Y-151312648D01*
X52788542Y-154764106D02*
X49158542Y-154764106D01*
X56240000Y-151312648D02*
X52788542Y-154764106D01*
X74478542Y-138624106D02*
X59018542Y-138624106D01*
X59018542Y-138624106D02*
X56240000Y-141402648D01*
X74478542Y-111724106D02*
X74478542Y-138624106D01*
D14*
X50558542Y-130434106D02*
X49718542Y-129594106D01*
X49718542Y-129594106D02*
X49718542Y-121384106D01*
X49718542Y-121384106D02*
X49758542Y-121344106D01*
X53708542Y-113994106D02*
X56228542Y-113994106D01*
X49758542Y-121344106D02*
X53408542Y-121344106D01*
X53598542Y-114104106D02*
X53708542Y-113994106D01*
X51538542Y-130434106D02*
X50558542Y-130434106D01*
X53598542Y-121154106D02*
X53598542Y-114104106D01*
X53408542Y-121344106D02*
X53598542Y-121154106D01*
X52168542Y-153434106D02*
X50738542Y-153434106D01*
X54728542Y-141734106D02*
X55218542Y-142224106D01*
X55218542Y-150384106D02*
X52168542Y-153434106D01*
X50738542Y-153434106D02*
X50708542Y-153404106D01*
X55218542Y-142224106D02*
X55218542Y-150384106D01*
G04 #@! TA.AperFunction,Conductor*
G36*
X59330000Y-113610000D02*
G01*
X59964157Y-113610000D01*
X60032278Y-113630002D01*
X60078771Y-113683658D01*
X60090157Y-113735842D01*
X60100000Y-121640000D01*
X60611365Y-122479410D01*
X60629757Y-122545817D01*
X60568031Y-131637243D01*
X60560847Y-132695294D01*
X60540383Y-132763278D01*
X60486413Y-132809405D01*
X60435294Y-132820438D01*
X52137499Y-132849553D01*
X52069310Y-132829790D01*
X52022629Y-132776298D01*
X52011062Y-132722504D01*
X52019891Y-131663052D01*
X52022783Y-131637243D01*
X52126013Y-131164107D01*
X52155480Y-131106658D01*
X52172726Y-131087505D01*
X52277582Y-130971050D01*
X52373069Y-130805662D01*
X52432084Y-130624034D01*
X52452046Y-130434106D01*
X52432084Y-130244178D01*
X52373069Y-130062550D01*
X52277582Y-129897162D01*
X52149795Y-129755240D01*
X51995294Y-129642988D01*
X51989266Y-129640304D01*
X51989264Y-129640303D01*
X51826861Y-129567997D01*
X51826860Y-129567997D01*
X51820830Y-129565312D01*
X51727429Y-129545459D01*
X51640486Y-129526978D01*
X51640481Y-129526978D01*
X51634029Y-129525606D01*
X51443055Y-129525606D01*
X51436603Y-129526978D01*
X51436598Y-129526978D01*
X51349655Y-129545459D01*
X51256254Y-129565312D01*
X51250224Y-129567997D01*
X51250223Y-129567997D01*
X51087820Y-129640303D01*
X51087818Y-129640304D01*
X51081790Y-129642988D01*
X51076449Y-129646868D01*
X51076448Y-129646869D01*
X51001198Y-129701542D01*
X50934331Y-129725400D01*
X50927137Y-129725606D01*
X50904202Y-129725606D01*
X50836081Y-129705604D01*
X50815107Y-129688701D01*
X50600874Y-129474468D01*
X50597986Y-129471484D01*
X50461059Y-129325221D01*
X50429106Y-129261822D01*
X50427042Y-129239110D01*
X50427042Y-122178606D01*
X50447044Y-122110485D01*
X50500700Y-122063992D01*
X50553042Y-122052606D01*
X53379630Y-122052606D01*
X53388200Y-122052898D01*
X53438318Y-122056315D01*
X53438322Y-122056315D01*
X53445894Y-122056831D01*
X53453371Y-122055526D01*
X53453372Y-122055526D01*
X53479850Y-122050905D01*
X53508845Y-122045844D01*
X53515363Y-122044883D01*
X53578784Y-122037208D01*
X53585885Y-122034525D01*
X53588494Y-122033884D01*
X53604804Y-122029421D01*
X53607340Y-122028656D01*
X53614826Y-122027349D01*
X53673342Y-122001662D01*
X53679446Y-121999171D01*
X53732090Y-121979279D01*
X53732091Y-121979278D01*
X53739198Y-121976593D01*
X53745461Y-121972289D01*
X53747827Y-121971052D01*
X53762639Y-121962807D01*
X53764893Y-121961474D01*
X53771847Y-121958421D01*
X53822544Y-121919519D01*
X53827874Y-121915647D01*
X53874262Y-121883767D01*
X53874267Y-121883762D01*
X53880523Y-121879463D01*
X53885577Y-121873791D01*
X53903484Y-121853693D01*
X53963735Y-121816138D01*
X53996908Y-121811515D01*
X54271882Y-121810094D01*
X54271883Y-121810094D01*
X54290000Y-121810000D01*
X54291345Y-121327943D01*
X54292421Y-121311869D01*
X54298163Y-121268253D01*
X54299195Y-121261739D01*
X54309454Y-121206386D01*
X54310838Y-121198919D01*
X54307251Y-121136708D01*
X54307042Y-121129455D01*
X54307042Y-115700443D01*
X54309475Y-114828255D01*
X54329667Y-114760190D01*
X54383453Y-114713847D01*
X54435475Y-114702606D01*
X55617137Y-114702606D01*
X55685258Y-114722608D01*
X55691198Y-114726670D01*
X55771790Y-114785224D01*
X55777818Y-114787908D01*
X55777820Y-114787909D01*
X55940223Y-114860215D01*
X55946254Y-114862900D01*
X56039654Y-114882753D01*
X56126598Y-114901234D01*
X56126603Y-114901234D01*
X56133055Y-114902606D01*
X56324029Y-114902606D01*
X56330481Y-114901234D01*
X56330486Y-114901234D01*
X56417430Y-114882753D01*
X56510830Y-114862900D01*
X56516861Y-114860215D01*
X56679264Y-114787909D01*
X56679266Y-114787908D01*
X56685294Y-114785224D01*
X56824954Y-114683755D01*
X56891820Y-114659897D01*
X56899955Y-114659695D01*
X56940000Y-114660000D01*
X56940000Y-114608778D01*
X56960002Y-114540657D01*
X56963380Y-114535717D01*
X56967582Y-114531050D01*
X56972377Y-114522746D01*
X57059765Y-114371385D01*
X57059766Y-114371384D01*
X57063069Y-114365662D01*
X57122084Y-114184034D01*
X57142046Y-113994106D01*
X57141356Y-113987541D01*
X57122774Y-113810741D01*
X57122774Y-113810739D01*
X57122084Y-113804178D01*
X57101119Y-113739655D01*
X57099091Y-113668688D01*
X57135754Y-113607890D01*
X57199466Y-113576564D01*
X57223057Y-113574737D01*
X59330000Y-113610000D01*
G37*
G04 #@! TD.AperFunction*
G04 #@! TA.AperFunction,Conductor*
G36*
X48090232Y-112397264D02*
G01*
X52993810Y-112423440D01*
X53061822Y-112443805D01*
X53108027Y-112497708D01*
X53119135Y-112548839D01*
X53123749Y-113520160D01*
X53104070Y-113588375D01*
X53080578Y-113615709D01*
X53073882Y-113621550D01*
X53073879Y-113621553D01*
X53068157Y-113626545D01*
X53063790Y-113632759D01*
X53031414Y-113678825D01*
X53027481Y-113684120D01*
X52988066Y-113734388D01*
X52984943Y-113741304D01*
X52983559Y-113743590D01*
X52975185Y-113758271D01*
X52973920Y-113760631D01*
X52969552Y-113766845D01*
X52966792Y-113773924D01*
X52966791Y-113773926D01*
X52946340Y-113826381D01*
X52943789Y-113832450D01*
X52917497Y-113890679D01*
X52916113Y-113898146D01*
X52915312Y-113900701D01*
X52910683Y-113916954D01*
X52910020Y-113919534D01*
X52907260Y-113926615D01*
X52906269Y-113934146D01*
X52906268Y-113934148D01*
X52898921Y-113989958D01*
X52897890Y-113996465D01*
X52886246Y-114059292D01*
X52886683Y-114066872D01*
X52886683Y-114066873D01*
X52889833Y-114121498D01*
X52890042Y-114128752D01*
X52890042Y-120509606D01*
X52870040Y-120577727D01*
X52816384Y-120624220D01*
X52764042Y-120635606D01*
X49787469Y-120635606D01*
X49778900Y-120635314D01*
X49728767Y-120631896D01*
X49728763Y-120631896D01*
X49721190Y-120631380D01*
X49658223Y-120642370D01*
X49651711Y-120643330D01*
X49588300Y-120651004D01*
X49581199Y-120653687D01*
X49578590Y-120654328D01*
X49562270Y-120658793D01*
X49559737Y-120659558D01*
X49552259Y-120660863D01*
X49493732Y-120686554D01*
X49487650Y-120689036D01*
X49467295Y-120696728D01*
X49434991Y-120708934D01*
X49434989Y-120708935D01*
X49427886Y-120711619D01*
X49421627Y-120715920D01*
X49419262Y-120717157D01*
X49404490Y-120725379D01*
X49402198Y-120726734D01*
X49395237Y-120729790D01*
X49389210Y-120734415D01*
X49389206Y-120734417D01*
X49344529Y-120768699D01*
X49339204Y-120772568D01*
X49286561Y-120808749D01*
X49281510Y-120814418D01*
X49280893Y-120814962D01*
X49216566Y-120845007D01*
X49197644Y-120846447D01*
X47641515Y-120847367D01*
X36364913Y-120854031D01*
X36296781Y-120834069D01*
X36250256Y-120780441D01*
X36238839Y-120727735D01*
X36254826Y-113916954D01*
X36258245Y-112460482D01*
X36278407Y-112392410D01*
X36332172Y-112346043D01*
X36384918Y-112334781D01*
X48090232Y-112397264D01*
G37*
G04 #@! TD.AperFunction*
G04 #@! TA.AperFunction,Conductor*
G36*
X34604687Y-111698502D02*
G01*
X34651180Y-111752158D01*
X34661284Y-111822432D01*
X34631790Y-111887012D01*
X34625661Y-111893595D01*
X34127030Y-112392226D01*
X34064718Y-112426252D01*
X34060819Y-112426852D01*
X34060840Y-112426964D01*
X34054795Y-112428117D01*
X34048654Y-112428676D01*
X33858923Y-112484516D01*
X33853465Y-112487369D01*
X33853461Y-112487371D01*
X33766936Y-112532606D01*
X33683652Y-112576146D01*
X33529517Y-112700074D01*
X33402388Y-112851580D01*
X33399421Y-112856978D01*
X33399417Y-112856983D01*
X33320637Y-113000286D01*
X33307109Y-113024893D01*
X33305248Y-113030760D01*
X33305247Y-113030762D01*
X33249169Y-113207542D01*
X33247307Y-113213412D01*
X33225261Y-113409957D01*
X33225777Y-113416101D01*
X33236769Y-113547001D01*
X33241810Y-113607040D01*
X33296325Y-113797156D01*
X33386729Y-113973062D01*
X33509577Y-114128059D01*
X33660192Y-114256242D01*
X33832836Y-114352730D01*
X34020934Y-114413846D01*
X34217319Y-114437264D01*
X34223454Y-114436792D01*
X34223456Y-114436792D01*
X34408372Y-114422563D01*
X34408376Y-114422562D01*
X34414514Y-114422090D01*
X34605005Y-114368904D01*
X34610509Y-114366124D01*
X34610511Y-114366123D01*
X34776037Y-114282510D01*
X34776039Y-114282509D01*
X34781538Y-114279731D01*
X34937389Y-114157967D01*
X35066620Y-114008251D01*
X35164311Y-113836285D01*
X35226739Y-113648619D01*
X35231356Y-113612074D01*
X35259736Y-113547001D01*
X35267266Y-113538774D01*
X35527519Y-113278521D01*
X35589831Y-113244495D01*
X35660646Y-113249560D01*
X35717482Y-113292107D01*
X35742293Y-113358627D01*
X35742614Y-113367900D01*
X35725340Y-120726530D01*
X35736978Y-120836446D01*
X35748395Y-120889152D01*
X35783287Y-120994035D01*
X35862379Y-121116944D01*
X35908904Y-121170572D01*
X36019415Y-121266215D01*
X36027617Y-121269955D01*
X36148300Y-121324984D01*
X36148306Y-121324986D01*
X36152400Y-121326853D01*
X36220532Y-121346815D01*
X36224982Y-121347452D01*
X36224986Y-121347453D01*
X36360765Y-121366894D01*
X36360769Y-121366894D01*
X36365216Y-121367531D01*
X47843128Y-121360748D01*
X48883968Y-121360133D01*
X48952100Y-121380095D01*
X48998625Y-121433723D01*
X49010042Y-121486133D01*
X49010042Y-129565194D01*
X49009750Y-129573764D01*
X49005817Y-129631458D01*
X49007122Y-129638935D01*
X49007122Y-129638936D01*
X49016803Y-129694405D01*
X49017765Y-129700927D01*
X49025440Y-129764348D01*
X49028123Y-129771449D01*
X49028764Y-129774058D01*
X49033227Y-129790368D01*
X49033992Y-129792904D01*
X49035299Y-129800390D01*
X49038353Y-129807347D01*
X49060984Y-129858901D01*
X49063475Y-129865005D01*
X49086055Y-129924762D01*
X49090359Y-129931025D01*
X49091596Y-129933391D01*
X49099841Y-129948203D01*
X49101174Y-129950457D01*
X49104227Y-129957411D01*
X49108849Y-129963434D01*
X49143121Y-130008097D01*
X49147001Y-130013438D01*
X49178881Y-130059826D01*
X49178886Y-130059831D01*
X49183185Y-130066087D01*
X49188855Y-130071138D01*
X49188856Y-130071140D01*
X49229703Y-130107533D01*
X49234980Y-130112514D01*
X50037107Y-130914642D01*
X50042960Y-130920907D01*
X50080981Y-130964491D01*
X50133271Y-131001242D01*
X50138513Y-131005134D01*
X50188824Y-131044582D01*
X50195743Y-131047706D01*
X50198035Y-131049094D01*
X50212707Y-131057463D01*
X50215067Y-131058728D01*
X50221281Y-131063096D01*
X50228360Y-131065856D01*
X50228362Y-131065857D01*
X50280817Y-131086308D01*
X50286886Y-131088859D01*
X50345115Y-131115151D01*
X50352588Y-131116536D01*
X50355154Y-131117340D01*
X50371377Y-131121961D01*
X50373969Y-131122626D01*
X50381051Y-131125388D01*
X50388586Y-131126380D01*
X50444403Y-131133728D01*
X50450919Y-131134760D01*
X50489312Y-131141876D01*
X50513728Y-131146401D01*
X50521308Y-131145964D01*
X50521309Y-131145964D01*
X50575922Y-131142815D01*
X50583175Y-131142606D01*
X50927137Y-131142606D01*
X50995258Y-131162608D01*
X51001198Y-131166670D01*
X51081790Y-131225224D01*
X51087818Y-131227908D01*
X51087820Y-131227909D01*
X51250223Y-131300215D01*
X51256254Y-131302900D01*
X51364994Y-131326014D01*
X51432327Y-131340326D01*
X51494801Y-131374055D01*
X51529122Y-131436204D01*
X51529234Y-131490432D01*
X51521085Y-131527781D01*
X51512477Y-131580061D01*
X51509585Y-131605870D01*
X51506409Y-131658773D01*
X51497580Y-132718225D01*
X51509037Y-132830452D01*
X51520604Y-132884246D01*
X51556285Y-132991253D01*
X51560619Y-132997946D01*
X51560621Y-132997949D01*
X51594715Y-133050592D01*
X51635735Y-133113930D01*
X51682416Y-133167422D01*
X51793205Y-133262743D01*
X51926366Y-133322993D01*
X51930682Y-133324244D01*
X51930685Y-133324245D01*
X51964161Y-133333947D01*
X51994555Y-133342756D01*
X52087003Y-133355718D01*
X52134849Y-133362426D01*
X52134852Y-133362426D01*
X52139301Y-133363050D01*
X54876979Y-133353444D01*
X60433798Y-133333947D01*
X60433806Y-133333947D01*
X60437096Y-133333935D01*
X60543628Y-133322380D01*
X60549383Y-133321138D01*
X60591528Y-133312042D01*
X60591532Y-133312041D01*
X60594747Y-133311347D01*
X60696550Y-133277940D01*
X60820039Y-133199758D01*
X60874009Y-133153631D01*
X60970473Y-133043822D01*
X61032090Y-132911288D01*
X61040230Y-132884246D01*
X61051258Y-132847611D01*
X61051259Y-132847605D01*
X61052554Y-132843304D01*
X61053224Y-132838859D01*
X61073665Y-132703229D01*
X61073666Y-132703222D01*
X61074335Y-132698780D01*
X61081408Y-131657151D01*
X61143215Y-122553661D01*
X61143245Y-122549303D01*
X61124628Y-122408758D01*
X61106236Y-122342351D01*
X61049899Y-122212257D01*
X60631672Y-121525733D01*
X60613277Y-121460337D01*
X60613177Y-121380095D01*
X60603657Y-113735203D01*
X60591854Y-113626377D01*
X60580468Y-113574193D01*
X60545867Y-113470343D01*
X60466849Y-113347388D01*
X60420356Y-113293732D01*
X60369379Y-113249560D01*
X60316707Y-113203919D01*
X60316704Y-113203917D01*
X60309896Y-113198018D01*
X60176947Y-113137302D01*
X60136113Y-113125312D01*
X60113149Y-113118569D01*
X60113145Y-113118568D01*
X60108826Y-113117300D01*
X60104377Y-113116660D01*
X60104371Y-113116659D01*
X59968604Y-113097139D01*
X59968599Y-113097139D01*
X59964157Y-113096500D01*
X59335325Y-113096500D01*
X59333216Y-113096482D01*
X58765357Y-113086978D01*
X57231650Y-113061309D01*
X57230164Y-113061354D01*
X57230163Y-113061354D01*
X57184882Y-113062725D01*
X57184867Y-113062726D01*
X57183408Y-113062770D01*
X57181953Y-113062883D01*
X57181947Y-113062883D01*
X57176919Y-113063273D01*
X57159817Y-113064597D01*
X57137262Y-113067416D01*
X57117831Y-113069844D01*
X57117827Y-113069845D01*
X57111897Y-113070586D01*
X57106212Y-113072433D01*
X57106213Y-113072433D01*
X56977165Y-113114365D01*
X56977163Y-113114366D01*
X56972894Y-113115753D01*
X56968863Y-113117735D01*
X56925266Y-113139171D01*
X56909182Y-113147079D01*
X56831342Y-113200305D01*
X56827174Y-113203155D01*
X56759652Y-113225095D01*
X56693053Y-113208264D01*
X56690631Y-113206866D01*
X56685294Y-113202988D01*
X56679268Y-113200305D01*
X56516861Y-113127997D01*
X56516860Y-113127997D01*
X56510830Y-113125312D01*
X56417430Y-113105459D01*
X56330486Y-113086978D01*
X56330481Y-113086978D01*
X56324029Y-113085606D01*
X56133055Y-113085606D01*
X56126603Y-113086978D01*
X56126598Y-113086978D01*
X56039655Y-113105459D01*
X55946254Y-113125312D01*
X55940224Y-113127997D01*
X55940223Y-113127997D01*
X55777820Y-113200303D01*
X55777818Y-113200304D01*
X55771790Y-113202988D01*
X55766449Y-113206868D01*
X55766448Y-113206869D01*
X55691198Y-113261542D01*
X55624331Y-113285400D01*
X55617137Y-113285606D01*
X53761543Y-113285606D01*
X53693422Y-113265604D01*
X53646929Y-113211948D01*
X53635544Y-113160204D01*
X53635473Y-113145092D01*
X53633992Y-112833403D01*
X53633165Y-112659204D01*
X53652844Y-112590989D01*
X53706278Y-112544242D01*
X53759164Y-112532606D01*
X73544042Y-112532606D01*
X73612163Y-112552608D01*
X73658656Y-112606264D01*
X73670042Y-112658606D01*
X73670042Y-137689606D01*
X73650040Y-137757727D01*
X73596384Y-137804220D01*
X73544042Y-137815606D01*
X59027756Y-137815606D01*
X59026436Y-137815599D01*
X59025361Y-137815588D01*
X58936321Y-137814655D01*
X58893945Y-137823817D01*
X58881379Y-137825875D01*
X58838287Y-137830709D01*
X58831636Y-137833025D01*
X58831632Y-137833026D01*
X58806612Y-137841739D01*
X58791799Y-137845902D01*
X58759032Y-137852987D01*
X58719729Y-137871314D01*
X58707953Y-137876096D01*
X58666990Y-137890361D01*
X58661015Y-137894095D01*
X58661012Y-137894096D01*
X58638547Y-137908133D01*
X58625030Y-137915472D01*
X58601028Y-137926665D01*
X58594640Y-137929644D01*
X58589075Y-137933961D01*
X58589073Y-137933962D01*
X58560389Y-137956212D01*
X58549930Y-137963508D01*
X58519138Y-137982748D01*
X58519135Y-137982750D01*
X58513166Y-137986480D01*
X58508171Y-137991440D01*
X58508170Y-137991441D01*
X58484363Y-138015082D01*
X58483738Y-138015667D01*
X58483072Y-138016184D01*
X58457082Y-138042174D01*
X58384460Y-138114291D01*
X58383802Y-138115328D01*
X58382699Y-138116557D01*
X55674842Y-140824414D01*
X55673905Y-140825342D01*
X55609493Y-140888419D01*
X55586002Y-140924869D01*
X55578583Y-140935194D01*
X55551524Y-140969091D01*
X55548459Y-140975432D01*
X55548458Y-140975433D01*
X55536928Y-140999285D01*
X55529395Y-141012707D01*
X55522246Y-141023799D01*
X55468530Y-141070221D01*
X55398243Y-141080233D01*
X55341108Y-141053433D01*
X55339795Y-141055240D01*
X55190636Y-140946869D01*
X55190635Y-140946868D01*
X55185294Y-140942988D01*
X55179266Y-140940304D01*
X55179264Y-140940303D01*
X55016861Y-140867997D01*
X55016860Y-140867997D01*
X55010830Y-140865312D01*
X54917429Y-140845459D01*
X54830486Y-140826978D01*
X54830481Y-140826978D01*
X54824029Y-140825606D01*
X54633055Y-140825606D01*
X54626603Y-140826978D01*
X54626598Y-140826978D01*
X54539655Y-140845459D01*
X54446254Y-140865312D01*
X54440224Y-140867997D01*
X54440223Y-140867997D01*
X54277820Y-140940303D01*
X54277818Y-140940304D01*
X54271790Y-140942988D01*
X54117289Y-141055240D01*
X54112868Y-141060150D01*
X54112867Y-141060151D01*
X54047817Y-141132397D01*
X53989502Y-141197162D01*
X53894015Y-141362550D01*
X53835000Y-141544178D01*
X53815038Y-141734106D01*
X53835000Y-141924034D01*
X53894015Y-142105662D01*
X53989502Y-142271050D01*
X54117289Y-142412972D01*
X54271790Y-142525224D01*
X54277818Y-142527908D01*
X54277820Y-142527909D01*
X54435291Y-142598019D01*
X54489387Y-142643999D01*
X54510042Y-142713126D01*
X54510042Y-150038446D01*
X54490040Y-150106567D01*
X54473137Y-150127541D01*
X51911977Y-152688701D01*
X51849665Y-152722727D01*
X51822882Y-152725606D01*
X51361239Y-152725606D01*
X51293118Y-152705604D01*
X51287178Y-152701542D01*
X51170636Y-152616869D01*
X51170635Y-152616868D01*
X51165294Y-152612988D01*
X51159266Y-152610304D01*
X51159264Y-152610303D01*
X50996861Y-152537997D01*
X50996860Y-152537997D01*
X50990830Y-152535312D01*
X50897429Y-152515459D01*
X50810486Y-152496978D01*
X50810481Y-152496978D01*
X50804029Y-152495606D01*
X50613055Y-152495606D01*
X50606603Y-152496978D01*
X50606598Y-152496978D01*
X50519655Y-152515459D01*
X50426254Y-152535312D01*
X50420224Y-152537997D01*
X50420223Y-152537997D01*
X50257820Y-152610303D01*
X50257818Y-152610304D01*
X50251790Y-152612988D01*
X50097289Y-152725240D01*
X49969502Y-152867162D01*
X49874015Y-153032550D01*
X49815000Y-153214178D01*
X49795038Y-153404106D01*
X49815000Y-153594034D01*
X49817040Y-153600312D01*
X49866841Y-153753583D01*
X49868869Y-153824550D01*
X49832206Y-153885348D01*
X49768494Y-153916674D01*
X49697960Y-153908581D01*
X49687079Y-153903354D01*
X49556669Y-153832841D01*
X49556662Y-153832838D01*
X49551243Y-153829908D01*
X49362310Y-153771424D01*
X49356185Y-153770780D01*
X49356184Y-153770780D01*
X49171746Y-153751395D01*
X49171744Y-153751395D01*
X49165617Y-153750751D01*
X49083118Y-153758259D01*
X48974793Y-153768117D01*
X48974790Y-153768118D01*
X48968654Y-153768676D01*
X48962748Y-153770414D01*
X48962744Y-153770415D01*
X48857618Y-153801355D01*
X48778923Y-153824516D01*
X48773465Y-153827369D01*
X48773461Y-153827371D01*
X48682689Y-153874826D01*
X48603652Y-153916146D01*
X48449517Y-154040074D01*
X48322388Y-154191580D01*
X48319421Y-154196978D01*
X48319417Y-154196983D01*
X48240637Y-154340286D01*
X48227109Y-154364893D01*
X48167307Y-154553412D01*
X48145261Y-154749957D01*
X48161810Y-154947040D01*
X48216325Y-155137156D01*
X48219144Y-155142641D01*
X48285449Y-155271655D01*
X48306729Y-155313062D01*
X48429577Y-155468059D01*
X48434270Y-155472053D01*
X48434271Y-155472054D01*
X48552420Y-155572606D01*
X48580192Y-155596242D01*
X48752836Y-155692730D01*
X48940934Y-155753846D01*
X49137319Y-155777264D01*
X49143454Y-155776792D01*
X49143456Y-155776792D01*
X49328372Y-155762563D01*
X49328376Y-155762562D01*
X49334514Y-155762090D01*
X49525005Y-155708904D01*
X49530509Y-155706124D01*
X49530511Y-155706123D01*
X49696037Y-155622510D01*
X49696039Y-155622509D01*
X49701538Y-155619731D01*
X49727668Y-155599316D01*
X49793663Y-155573139D01*
X49805241Y-155572606D01*
X52779328Y-155572606D01*
X52780648Y-155572613D01*
X52870763Y-155573557D01*
X52913139Y-155564395D01*
X52925705Y-155562337D01*
X52968797Y-155557503D01*
X52975448Y-155555187D01*
X52975452Y-155555186D01*
X53000472Y-155546473D01*
X53015284Y-155542310D01*
X53041161Y-155536715D01*
X53048052Y-155535225D01*
X53087355Y-155516898D01*
X53099131Y-155512116D01*
X53140094Y-155497851D01*
X53146069Y-155494117D01*
X53146072Y-155494116D01*
X53168537Y-155480079D01*
X53182054Y-155472740D01*
X53206056Y-155461547D01*
X53206057Y-155461546D01*
X53212444Y-155458568D01*
X53246695Y-155432000D01*
X53257154Y-155424704D01*
X53287946Y-155405464D01*
X53287949Y-155405462D01*
X53293918Y-155401732D01*
X53322721Y-155373130D01*
X53323346Y-155372545D01*
X53324012Y-155372028D01*
X53350001Y-155346039D01*
X53422624Y-155273921D01*
X53423282Y-155272884D01*
X53424385Y-155271655D01*
X56805063Y-151890976D01*
X56806000Y-151890047D01*
X56865475Y-151831805D01*
X56865476Y-151831804D01*
X56870507Y-151826877D01*
X56874322Y-151820958D01*
X56874328Y-151820950D01*
X56893994Y-151790434D01*
X56901427Y-151780089D01*
X56928476Y-151746205D01*
X56943073Y-151716010D01*
X56950602Y-151702593D01*
X56964948Y-151680332D01*
X56968765Y-151674410D01*
X56971173Y-151667793D01*
X56971176Y-151667788D01*
X56983592Y-151633675D01*
X56988553Y-151621932D01*
X57004353Y-151589248D01*
X57004356Y-151589239D01*
X57007421Y-151582899D01*
X57014966Y-151550220D01*
X57019334Y-151535473D01*
X57030803Y-151503963D01*
X57031685Y-151496978D01*
X57031687Y-151496971D01*
X57036237Y-151460956D01*
X57038472Y-151448405D01*
X57046640Y-151413026D01*
X57048225Y-151406163D01*
X57048367Y-151365574D01*
X57048396Y-151364705D01*
X57048500Y-151363879D01*
X57048500Y-151327362D01*
X57048858Y-151224778D01*
X57048589Y-151223575D01*
X57048500Y-151221931D01*
X57048500Y-141789730D01*
X57068502Y-141721609D01*
X57085405Y-141700635D01*
X59316529Y-139469511D01*
X59378841Y-139435485D01*
X59405624Y-139432606D01*
X74422637Y-139432606D01*
X74437556Y-139433492D01*
X74472862Y-139437702D01*
X74519117Y-139432840D01*
X74522035Y-139432606D01*
X74524152Y-139432606D01*
X74565610Y-139427955D01*
X74566207Y-139427891D01*
X74653254Y-139418742D01*
X74655958Y-139417821D01*
X74658797Y-139417503D01*
X74741465Y-139388715D01*
X74742036Y-139388519D01*
X74824963Y-139360288D01*
X74827398Y-139358790D01*
X74830094Y-139357851D01*
X74835573Y-139354427D01*
X74835576Y-139354426D01*
X74904305Y-139311481D01*
X74905049Y-139311019D01*
X74979454Y-139265244D01*
X74981493Y-139263247D01*
X74983918Y-139261732D01*
X75046035Y-139200047D01*
X75046661Y-139199430D01*
X75104433Y-139142855D01*
X75109049Y-139138335D01*
X75110595Y-139135936D01*
X75112624Y-139133921D01*
X75159515Y-139060032D01*
X75159971Y-139059318D01*
X75203795Y-138991317D01*
X75207307Y-138985868D01*
X75208283Y-138983185D01*
X75209815Y-138980772D01*
X75239144Y-138898407D01*
X75239442Y-138897580D01*
X75267130Y-138821508D01*
X75267131Y-138821504D01*
X75269345Y-138815421D01*
X75269703Y-138812586D01*
X75270661Y-138809896D01*
X75281021Y-138723020D01*
X75281128Y-138722150D01*
X75287042Y-138675337D01*
X75287042Y-138673208D01*
X75287305Y-138670317D01*
X75291304Y-138636779D01*
X75292138Y-138629786D01*
X75287732Y-138587866D01*
X75287042Y-138574695D01*
X75287042Y-111804500D01*
X75307044Y-111736379D01*
X75360700Y-111689886D01*
X75413042Y-111678500D01*
X77225500Y-111678500D01*
X77293621Y-111698502D01*
X77340114Y-111752158D01*
X77351500Y-111804500D01*
X77351500Y-163234000D01*
X77331498Y-163302121D01*
X77277842Y-163348614D01*
X77225500Y-163360000D01*
X17464500Y-163360000D01*
X17396379Y-163339998D01*
X17349886Y-163286342D01*
X17338500Y-163234000D01*
X17338500Y-111804500D01*
X17358502Y-111736379D01*
X17412158Y-111689886D01*
X17464500Y-111678500D01*
X34536566Y-111678500D01*
X34604687Y-111698502D01*
G37*
G04 #@! TD.AperFunction*
M02*
